<svg width="552" height="574" viewBox="0 0 552 574" fill="none" xmlns="http://www.w3.org/2000/svg">
<path d="M114.222 231.417L115.478 227.224H31.3105L32.9855 231.417H114.222Z" fill="url(#paint0_linear)"/>
<path d="M38.0109 186.973H110.035L115.479 227.225H31.311L38.0109 186.973Z" fill="url(#paint1_linear)"/>
<path d="M40.0893 188.65H107.455L112.547 225.547H33.8228L40.0893 188.65Z" fill="#54A4A0"/>
<path d="M40.7938 189.489H106.726L111.71 224.709H34.6606L40.7938 189.489Z" fill="url(#paint2_linear)"/>
<path d="M65.6482 189.489V224.709" stroke="#54A4A0"/>
<path d="M92.4474 188.65L95.7974 224.709" stroke="#54A4A0"/>
<path d="M79.0478 189.07L80.3041 224.709" stroke="#54A4A0"/>
<path d="M52.2474 189.07L50.1537 224.709" stroke="#54A4A0"/>
<line x1="108.359" y1="200.891" x2="38.8477" y2="200.891" stroke="#55A5A0"/>
<path d="M110.034 212.55L36.7541 212.55" stroke="#55A5A0"/>
<path d="M63.9731 231.418H84.0729V232.611C84.0729 234.267 82.7298 235.611 81.0729 235.611H66.9731C65.3163 235.611 63.9731 234.267 63.9731 232.611V231.418Z" fill="url(#paint3_linear)"/>
<path d="M68.2298 235.995H80.2687V251.838L68.2298 261.027V235.995Z" fill="url(#paint4_linear)"/>
<path opacity="0.1" fill-rule="evenodd" clip-rule="evenodd" d="M309.788 98.5055C369.947 95.1989 420.836 137.612 463.098 180.588C504.941 223.139 547.606 274.649 541.394 334.027C535.47 390.666 477.585 421.725 434.039 458.382C396.147 490.279 358.598 520.675 309.788 528.995C249.548 539.262 221.129 487.174 172.442 450.216C119.068 409.7 32.9627 374.611 41.0277 308.054C48.6227 245.375 125.927 239.217 172.441 196.564C215.547 157.037 251.414 101.714 309.788 98.5055Z" fill="url(#paint5_linear)"/>
<mask id="mask0" mask-type="alpha" maskUnits="userSpaceOnUse" x="40" y="98" width="502" height="433">
<path fill-rule="evenodd" clip-rule="evenodd" d="M309.788 98.5055C369.947 95.1989 420.836 137.612 463.098 180.588C504.941 223.139 547.606 274.649 541.394 334.027C535.47 390.666 477.585 421.725 434.039 458.382C396.147 490.279 358.598 520.675 309.788 528.995C249.548 539.262 221.129 487.174 172.442 450.216C119.068 409.7 32.9627 374.611 41.0277 308.054C48.6227 245.375 125.927 239.217 172.441 196.564C215.547 157.037 251.414 101.714 309.788 98.5055Z" fill="#3ED6EF"/>
</mask>
<g mask="url(#mask0)">
<path d="M488.344 416.491L490.034 410.851H376.808L379.062 416.491H488.344Z" fill="url(#paint6_linear)"/>
<path d="M385.821 356.703H482.711L490.034 410.851H376.808L385.821 356.703Z" fill="url(#paint7_linear)"/>
<path d="M388.619 358.959H479.242L486.091 408.594H380.189L388.619 358.959Z" fill="#54A4A0"/>
<path d="M389.566 360.087H478.261L484.964 407.467H381.315L389.566 360.087Z" fill="url(#paint8_linear)"/>
<path d="M423.001 360.087V407.467" stroke="#54A4A0"/>
<path d="M459.052 358.959L463.559 407.466" stroke="#54A4A0"/>
<path d="M441.026 359.523L442.716 407.467" stroke="#54A4A0"/>
<path d="M404.974 359.523L402.158 407.467" stroke="#54A4A0"/>
<line x1="480.458" y1="375.252" x2="386.948" y2="375.252" stroke="#55A5A0"/>
<path d="M482.711 391.109L384.131 391.109" stroke="#55A5A0"/>
<path d="M420.747 416.491H447.786V419.132C447.786 420.788 446.443 422.132 444.786 422.132H423.747C422.09 422.132 420.747 420.788 420.747 419.132V416.491Z" fill="url(#paint9_linear)"/>
<rect x="426.474" y="422.648" width="16.1952" height="56.2162" fill="url(#paint10_linear)"/>
</g>
<g filter="url(#filter0_d)">
<path d="M335.829 14H520.62C524.636 14.0025 528.487 15.6009 531.327 18.4442C534.166 21.2875 535.763 25.143 535.765 29.164V285.022C535.763 289.043 534.166 292.899 531.327 295.742C528.487 298.585 524.636 300.184 520.62 300.186H335.829C331.816 300.189 327.966 298.597 325.124 295.762C322.281 292.926 320.678 289.077 320.665 285.059V29.2015C320.662 27.2058 321.051 25.2289 321.812 23.3841C322.572 21.5393 323.689 19.8629 325.097 18.4508C326.506 17.0387 328.179 15.9187 330.02 15.155C331.862 14.3913 333.836 13.9988 335.829 14Z" fill="white"/>
</g>
<path opacity="0.8" d="M429.26 150C428.888 150 428.517 149.915 428.181 149.741L417.378 144.149C414.313 142.56 411.915 140.778 410.042 138.701C405.944 134.159 403.663 128.328 403.627 122.28L403.5 102.373C403.485 100.075 404.968 98.0131 407.185 97.2365L427.022 90.3204C428.199 89.8997 429.513 89.8938 430.712 90.2998L450.625 96.9805C452.853 97.7248 454.361 99.7723 454.373 102.067L454.499 121.988C454.539 128.028 452.337 133.882 448.302 138.474C446.451 140.58 444.074 142.39 441.038 144.008L430.332 149.726C430 149.906 429.631 149.997 429.26 150Z" fill="#3ED6EF"/>
<path d="M426.958 126.963C426.378 126.966 425.798 126.757 425.351 126.327L419.6 120.797C418.712 119.938 418.703 118.543 419.582 117.679C420.461 116.811 421.896 116.802 422.787 117.658L426.924 121.635L437.027 111.674C437.909 110.807 439.343 110.798 440.231 111.654C441.122 112.513 441.131 113.91 440.253 114.772L428.555 126.307C428.114 126.742 427.537 126.96 426.958 126.963Z" fill="white"/>
<path d="M428.225 185.809C466.424 185.809 497.388 155.265 497.388 117.589C497.388 79.9137 466.424 49.3794 428.225 49.3794C390.025 49.3794 359.042 79.9137 359.042 117.589C359.042 155.265 390.025 185.809 428.225 185.809Z" stroke="#FAFBFC" stroke-width="10"/>
<path d="M378.633 217.14H478.367C480.755 217.14 483.046 218.09 484.734 219.781C486.423 221.472 487.372 223.765 487.372 226.156C487.372 228.547 486.423 230.84 484.734 232.531C483.046 234.222 480.755 235.172 478.367 235.172H378.633C376.245 235.172 373.954 234.222 372.266 232.531C370.577 230.84 369.628 228.547 369.628 226.156C369.628 223.765 370.577 221.472 372.266 219.781C373.954 218.09 376.245 217.14 378.633 217.14Z" fill="#F3F3F3"/>
<path d="M363.014 247.206H493.983C496.371 247.206 498.662 248.155 500.35 249.846C502.039 251.537 502.988 253.83 502.988 256.222C502.988 258.613 502.039 260.906 500.35 262.597C498.662 264.288 496.371 265.238 493.983 265.238H363.014C360.625 265.238 358.335 264.288 356.646 262.597C354.958 260.906 354.009 258.613 354.009 256.222C354.009 253.83 354.958 251.537 356.646 249.846C358.335 248.155 360.625 247.206 363.014 247.206Z" fill="#F3F3F3"/>
<g clip-path="url(#clip0)">
<path d="M174.476 96.0282C174.476 85.393 186.188 88.7832 188.181 89.4495C190.174 90.1157 194.825 74.7913 194.825 74.7913C194.825 74.7913 218.744 72.7924 223.395 77.4564C223.395 77.4564 224.724 97.4448 224.06 110.104C223.395 122.764 219.339 128.081 214.688 128.081C213.217 127.999 211.772 127.66 210.416 127.081V150.386L182.282 135.762L185.747 108.233C185.605 108.149 185.523 108.105 185.523 108.105C185.523 108.105 174.476 106.073 174.476 96.0282Z" fill="#FFB7B6"/>
<path d="M224.155 94.784C224.155 94.784 222.858 83.8429 222.692 80.8139C222.455 76.4564 218.408 75.5421 216.028 78.5983C212.606 83.1366 206.798 85.1657 201.305 83.7421C196.486 82.6164 194.456 81.324 194.014 86.2019C193.572 91.0798 191.915 99.1802 190.368 97.0133C188.822 94.8464 187.091 90.0828 184.027 89.5288C179.344 88.6824 176.449 94.2883 177.553 97.6321C178.658 100.976 180.22 103.061 186 106.223L184.197 120.545C169.876 101.502 164.481 75.3486 183.906 69.2925C191.162 67.03 198.701 52.3676 212.743 55.7031C222.692 58.0665 222.692 65.7105 223.4 72.3575C236.767 72.9114 224.155 94.784 224.155 94.784Z" fill="#352316"/>
<path d="M209.153 94.784C208.466 94.784 207.91 93.8664 207.91 92.7345C207.91 91.6026 208.466 90.6851 209.153 90.6851C209.839 90.6851 210.395 91.6026 210.395 92.7345C210.395 93.8664 209.839 94.784 209.153 94.784Z" fill="#161B36"/>
<path d="M221.45 95.6358C220.763 95.6358 220.207 94.7182 220.207 93.5863C220.207 92.4545 220.763 91.5369 221.45 91.5369C222.136 91.5369 222.692 92.4545 222.692 93.5863C222.692 94.7182 222.136 95.6358 221.45 95.6358Z" fill="#161B36"/>
<path d="M211.721 84.5367C211.279 84.0382 210.671 83.6504 208.849 83.7612C207.026 83.872 204.264 85.5891 204.872 86.0323C205.479 86.4754 207.302 84.9798 208.738 85.4784C210.174 85.9769 210.999 86.3869 211.482 86.1155C212.089 85.7738 211.933 84.7764 211.721 84.5367Z" fill="#161B36"/>
<path d="M219.62 84.0281C220.199 83.6994 220.899 83.5292 222.588 84.2242C224.278 84.9192 226.339 87.4386 225.621 87.6613C224.903 87.884 223.66 85.8783 222.14 85.8851C220.62 85.892 219.708 86.0131 219.338 85.5998C218.873 85.0797 219.342 84.1862 219.62 84.0281Z" fill="#161B36"/>
<g style="mix-blend-mode:overlay" opacity="0.6">
<g style="mix-blend-mode:overlay" opacity="0.6">
<path d="M216.924 106.559C217.565 106.583 218.201 106.435 218.766 106.13C219.137 105.922 219.395 105.559 219.469 105.139C219.607 104.271 218.722 102.927 217.638 101.388C217.363 101.021 217.111 100.637 216.883 100.238C216.663 99.7647 216.725 95.4504 216.914 91.553L216.25 91.5208C216.185 92.8725 215.88 99.658 216.281 100.52C216.523 100.956 216.795 101.375 217.096 101.773C217.778 102.741 218.92 104.363 218.813 105.035C218.769 105.262 218.624 105.456 218.418 105.562C217.464 105.974 216.39 106.007 215.413 105.656L215.21 106.291C215.764 106.467 216.342 106.558 216.924 106.559Z" fill="#030F1C"/>
</g>
</g>
<path d="M217.729 112.898C217.785 112.701 217.761 112.49 217.661 112.312C217.562 112.133 217.395 112.002 217.198 111.947C216.221 111.663 214.419 111.129 213.047 110.661C211.616 110.092 210.224 109.428 208.881 108.674C208.647 108.546 208.364 108.548 208.132 108.68C207.9 108.812 207.752 109.054 207.74 109.321C207.647 111.371 207.893 115.376 211.109 116.193C215.02 117.186 217.068 115.064 217.729 112.898Z" fill="#161B36"/>
<path d="M216.028 115.455C216.028 115.455 212.663 110.741 207.856 111.818C207.856 111.818 207.849 115.499 210.948 116.329C214.284 117.222 216.028 115.455 216.028 115.455Z" fill="#E55151"/>
<path d="M181.807 93.7553C184.993 92.6748 187.951 99.6275 188.075 99.9242C188.147 100.094 188.067 100.289 187.898 100.361C187.729 100.432 187.534 100.352 187.463 100.183C186.948 98.9823 186.318 97.8351 185.583 96.757C184.911 96.6397 184.22 96.7664 183.633 97.1143C183.051 97.549 182.679 98.2102 182.61 98.9346C182.583 99.0952 182.445 99.2131 182.283 99.2134C182.264 99.2135 182.246 99.2119 182.228 99.2088C182.141 99.1945 182.063 99.1461 182.012 99.0743C181.961 99.0024 181.94 98.9131 181.955 98.8259C182.07 97.2131 183.444 95.9849 185.055 96.0539C184.109 94.8791 183.029 94.0426 182.021 94.3864C181.908 94.4247 181.784 94.3999 181.695 94.3213C181.606 94.2428 181.565 94.1225 181.588 94.0058C181.611 93.889 181.695 93.7935 181.807 93.7553H181.807Z" fill="#0B122D"/>
<path d="M210.416 127.415C210.573 127.415 210.708 127.305 210.741 127.152C210.774 126.998 210.694 126.842 210.551 126.778C210.441 126.729 199.525 121.831 194.917 115.912C194.804 115.767 194.596 115.742 194.452 115.855C194.307 115.968 194.281 116.177 194.394 116.322C199.104 122.374 209.827 127.185 210.282 127.387C210.324 127.406 210.37 127.415 210.416 127.415Z" fill="#0B122D"/>
<path d="M194.849 80.4258C194.922 80.4258 194.994 80.4012 195.052 80.3558C200.066 76.4515 198.2 68.8833 198.118 68.5631C198.072 68.3857 197.892 68.279 197.714 68.3245C197.537 68.3699 197.43 68.5505 197.475 68.7284C197.493 68.8026 199.311 76.1951 194.645 79.8294C194.532 79.9167 194.488 80.0659 194.534 80.2007C194.58 80.3354 194.707 80.4258 194.849 80.4258Z" fill="white"/>
<g style="mix-blend-mode:overlay" opacity="0.6">
<path d="M210.394 127.235C210.394 127.235 200.819 122.768 197.726 119.519C197.726 119.519 198.441 128.28 204.764 134.438C211.087 140.595 210.394 135.619 210.394 135.619L210.394 127.235Z" fill="#030F1C"/>
</g>
<path d="M227.251 509.931L227.987 529.117H243.058V509.931H227.251ZM152.603 509.98L151.941 529.117H167.012L168.184 510.522L152.603 509.98Z" fill="#FFB7B6"/>
<path d="M252.73 524.086L252.62 524.093C252.201 524.101 251.815 524.325 251.599 524.685C250.955 525.765 251.757 528.088 252.203 529.194C251.51 528.849 250.9 528.542 250.421 528.3C250.053 528.109 249.692 527.925 249.336 527.745L249.25 527.7C247.285 526.642 245.208 525.808 243.058 525.217C236.015 531.707 227.88 525.217 227.88 525.217C227.88 525.217 223.715 527.305 223.568 530.469C223.52 531.51 223.502 533.401 223.5 535.47L223.5 536.192C223.5 536.354 223.5 536.516 223.501 536.678L223.502 537.166C223.511 540.747 223.555 544.319 223.558 544.622L223.559 546.7C223.559 547.283 223.789 547.842 224.2 548.254C224.611 548.666 225.169 548.898 225.75 548.898H281.474C282.055 548.898 282.613 548.666 283.024 548.254C283.435 547.842 283.665 547.283 283.665 546.7V544.015H283.546C282.712 541.257 277.511 538.139 272.176 536.846C272.074 536.821 271.964 536.794 271.855 536.767C271.065 536.572 268.877 536.015 266.393 535.239C265.595 534.985 264.738 534.694 263.835 534.372C263.891 534.319 263.923 534.289 263.925 534.287C264.059 534.162 264.067 533.951 263.942 533.816C263.818 533.682 263.608 533.674 263.473 533.799C263.455 533.816 263.332 533.93 263.137 534.122C262.724 533.971 262.302 533.813 261.868 533.646C260.831 533.227 259.71 532.74 258.58 532.23L258.626 532.186C258.761 532.061 258.769 531.85 258.644 531.715C258.519 531.581 258.309 531.573 258.175 531.698C258.159 531.712 258.069 531.797 257.927 531.934C256.498 531.281 255.08 530.603 253.813 529.986C254.916 529.923 257.144 529.662 258.175 528.575C258.569 528.175 258.772 527.625 258.732 527.064C258.766 526.618 258.518 526.198 258.111 526.014C257.111 525.627 255.166 527.128 254.018 528.135C254.235 527.026 254.412 525.373 253.773 524.571C253.494 524.226 253.06 524.046 252.62 524.093L252.73 524.086ZM155.274 520.601C154.563 520.015 153.62 519.797 152.725 520.011C151.604 520.244 150.944 520.75 150.765 521.517C150.543 522.466 151.154 523.685 152.066 524.893C151.557 524.91 151.05 525.001 150.883 525.262L138.568 544.485L138.607 544.487C138.278 545.029 138.102 545.65 138.097 546.284V548.898H170.848V546.284C170.848 545.97 170.803 545.658 170.716 545.356L168 526.362C167.905 525.698 165.921 525.158 165.119 525.315C164.771 525.209 164.417 525.13 164.058 525.078C164.346 524.622 164.528 524.106 164.59 523.57C164.649 522.693 164.247 521.85 163.53 521.344C163.159 521.02 162.647 520.913 162.178 521.061C161.097 521.396 160.059 523.035 159.227 524.792C158.62 524.789 158.018 524.793 157.44 524.801C157.037 523.143 156.374 521.485 155.274 520.601ZM252.662 524.758C252.885 524.727 253.109 524.813 253.254 524.987C253.881 525.774 253.372 528.168 253.123 529.024L253.026 529.356L253.002 529.379C252.415 528.057 251.705 525.805 252.169 525.027C252.272 524.854 252.461 524.751 252.662 524.758ZM257.714 526.61C257.767 526.608 257.82 526.617 257.87 526.636C257.987 526.681 258.054 526.839 258.069 527.103C258.097 527.48 257.96 527.849 257.693 528.115C256.809 529.049 254.698 529.271 253.707 529.324C255.131 527.949 256.967 526.61 257.714 526.61ZM162.375 521.698C162.633 521.614 162.916 521.677 163.114 521.864C163.657 522.232 163.966 522.859 163.928 523.515C163.86 524.045 163.661 524.55 163.349 524.983C162.359 524.873 161.176 524.819 159.97 524.8C160.721 523.259 161.576 521.945 162.375 521.698ZM153.426 520.601C153.95 520.6 154.457 520.784 154.858 521.121C155.794 521.874 156.383 523.321 156.756 524.814C154.77 524.856 153.218 524.943 153.103 524.943C153.058 524.937 152.999 524.931 152.943 524.925C151.928 523.696 151.22 522.489 151.412 521.668C151.527 521.177 152.014 520.839 152.86 520.663C153.046 520.623 153.236 520.603 153.426 520.601Z" fill="#4C3939"/>
<g opacity="0.4">
<g style="mix-blend-mode:overlay" opacity="0.4">
<path d="M227.84 542.427C226.538 542.427 225.483 541.369 225.483 540.064C225.483 538.759 226.538 537.701 227.84 537.701C229.141 537.701 230.197 538.759 230.197 540.064C230.197 541.369 229.141 542.427 227.84 542.427Z" fill="#030F1C"/>
</g>
<g style="mix-blend-mode:overlay" opacity="0.4">
<path d="M228.649 536.211H223.5V535.545H228.649C231.028 535.548 232.956 537.481 232.959 539.867V544.015H283.666V546.7C283.666 547.283 283.435 547.842 283.024 548.254C282.613 548.666 282.055 548.898 281.474 548.898H225.75C225.169 548.898 224.611 548.666 224.201 548.254C223.79 547.842 223.559 547.283 223.559 546.7V544.015H232.295V539.867C232.292 537.849 230.662 536.214 228.649 536.211Z" fill="#030F1C"/>
</g>
<g style="mix-blend-mode:overlay" opacity="0.4">
<path d="M144.952 541.532H163.994C167.779 541.532 170.848 543.66 170.848 546.284V548.898H138.097V546.284C138.097 543.66 141.166 541.532 144.952 541.532Z" fill="#030F1C"/>
</g>
<g style="mix-blend-mode:overlay" opacity="0.4">
<path d="M252.204 529.194C252.32 529.483 252.414 529.693 252.449 529.771C252.463 529.802 252.482 529.831 252.505 529.856C251.465 530.882 250.499 531.981 249.613 533.144C249.504 533.291 249.535 533.499 249.681 533.609C249.828 533.719 250.035 533.69 250.145 533.543C251.108 532.285 252.165 531.102 253.307 530.006C253.418 530.004 253.596 529.998 253.813 529.986C255.079 530.603 256.499 531.281 257.927 531.934C256.814 533.015 255.782 534.178 254.841 535.413C254.731 535.56 254.76 535.769 254.907 535.879C255.054 535.989 255.263 535.959 255.373 535.812C256.348 534.538 257.421 533.34 258.579 532.23C259.729 532.749 260.869 533.244 261.921 533.668C262.315 533.826 262.719 533.98 263.128 534.131C262.051 535.185 261.052 536.315 260.139 537.514C260.03 537.661 260.06 537.869 260.207 537.979C260.353 538.089 260.561 538.059 260.671 537.913C261.631 536.659 262.685 535.479 263.823 534.384C267.888 535.828 272.176 536.846 272.176 536.846C272.176 536.846 271.477 539.658 269.046 540.323C266.616 540.987 252.807 536.224 249.157 534.451C245.507 532.679 249.25 527.7 249.25 527.7C249.25 527.7 250.441 528.318 252.204 529.194Z" fill="#030F1C"/>
</g>
<g opacity="0.4">
<g style="mix-blend-mode:overlay" opacity="0.4">
<path d="M157.951 527.922C157.853 526.871 157.683 525.828 157.44 524.801C158.018 524.792 158.62 524.788 159.227 524.791C158.709 525.885 158.27 527.023 157.951 527.922Z" fill="#030F1C"/>
</g>
<g style="mix-blend-mode:overlay" opacity="0.4">
<path d="M152.66 525.636C153.778 526.905 154.994 528.082 156.298 529.158C154.949 529.262 153.627 529.593 152.388 530.138C152.281 530.19 152.21 530.295 152.201 530.414C152.193 530.532 152.248 530.647 152.346 530.714C152.444 530.781 152.571 530.79 152.678 530.738C154.105 530.143 155.629 529.816 157.175 529.77C157.261 529.683 157.392 529.658 157.505 529.708C157.617 529.758 157.687 529.872 157.68 529.995C157.842 530.018 157.997 529.919 158.044 529.761C158.566 528.063 159.209 526.405 159.97 524.8C161.177 524.819 162.36 524.872 163.35 524.982C161.938 527.116 158.451 529.123 158.408 529.148C158.282 529.219 158.217 529.363 158.246 529.505C158.275 529.646 158.392 529.753 158.535 529.769C160.349 529.98 162.146 530.31 163.917 530.759C163.946 530.767 163.976 530.771 164.006 530.771C164.172 530.771 164.313 530.648 164.335 530.483C164.358 530.318 164.256 530.162 164.096 530.117C162.601 529.726 161.083 529.429 159.551 529.227C160.773 528.44 163.029 526.825 164.058 525.077C165.144 525.249 165.875 525.514 165.918 525.917C166.143 527.987 165.311 537.166 164.206 537.812C163.101 538.458 147.551 538.31 147.454 537.933C147.234 537.074 151.275 528.195 152.66 525.636ZM163.968 532.396C163.775 532.339 159.163 531.024 151.225 532.387C151.044 532.418 150.923 532.59 150.954 532.771C150.985 532.952 151.156 533.074 151.336 533.044C159.108 531.708 163.735 533.022 163.781 533.035C163.895 533.068 164.018 533.038 164.104 532.956C164.19 532.874 164.225 532.752 164.197 532.637C164.169 532.521 164.082 532.429 163.968 532.396L163.968 532.396ZM149.84 535.648C154.708 535.095 159.623 535.094 164.491 535.647C164.507 535.649 164.522 535.65 164.538 535.65C164.712 535.649 164.856 535.514 164.868 535.34C164.88 535.165 164.756 535.011 164.583 534.987C159.659 534.427 154.688 534.426 149.764 534.986C149.581 535.007 149.451 535.172 149.472 535.355C149.496 535.536 149.659 535.666 149.84 535.648L149.84 535.648Z" fill="#030F1C"/>
</g>
<g style="mix-blend-mode:overlay" opacity="0.4">
<path d="M153.023 525.023C153.059 524.976 153.088 524.943 153.103 524.943C153.218 524.943 154.77 524.856 156.756 524.813C157.094 526.245 157.301 527.705 157.375 529.175C155.8 527.927 154.344 526.538 153.023 525.023Z" fill="#030F1C"/>
</g>
</g>
</g>
<path d="M240.629 284.965C240.629 284.965 248.43 383.786 247.988 400.182C247.546 416.578 246.22 517.612 246.22 517.612C246.22 517.612 235.615 523.373 224.568 517.612C224.568 517.612 217.939 455.131 214.846 436.519C211.753 417.908 212.636 392.649 212.636 392.649L196.728 353.21L169.255 518.896C169.255 518.896 155.19 522.487 148.562 518.055C148.562 518.055 149.888 486.593 148.562 455.574C147.236 424.555 149.888 401.955 153.865 389.99C153.865 389.99 145.033 326.619 146.801 284.965H240.629Z" fill="#2D2B72"/>
<g opacity="0.6">
<g style="mix-blend-mode:overlay" opacity="0.6">
<path d="M171.336 506.347C171.336 506.347 161.759 510.444 148.914 506.347V509.045C156.017 511.498 163.725 511.553 170.862 509.204L171.336 506.347Z" fill="white"/>
</g>
<g style="mix-blend-mode:overlay" opacity="0.6">
<path d="M246.37 506.347C246.37 506.347 236.196 510.445 223.352 506.347L223.688 509.433C223.688 509.433 234.758 513.193 246.332 509.204L246.37 506.347Z" fill="white"/>
</g>
<g style="mix-blend-mode:overlay" opacity="0.6">
<g style="mix-blend-mode:overlay" opacity="0.6">
<path d="M147.053 311.893C147.073 311.893 147.092 311.891 147.112 311.888C167.664 308.221 164.289 285.375 164.253 285.145C164.223 284.964 164.053 284.84 163.872 284.869C163.692 284.898 163.568 285.068 163.596 285.249C163.632 285.473 166.902 307.68 146.995 311.232C146.826 311.263 146.708 311.418 146.723 311.589C146.738 311.761 146.881 311.893 147.053 311.893Z" fill="#030F1C"/>
</g>
</g>
<g style="mix-blend-mode:overlay" opacity="0.6">
<g style="mix-blend-mode:overlay" opacity="0.6">
<path d="M242.563 307.236C242.716 307.236 242.849 307.131 242.886 306.982C242.922 306.833 242.853 306.679 242.717 306.607C242.573 306.532 228.351 298.911 229.103 285.216C229.108 285.127 229.078 285.041 229.019 284.975C228.96 284.909 228.878 284.87 228.79 284.865C228.702 284.859 228.615 284.889 228.549 284.948C228.483 285.007 228.444 285.09 228.44 285.179C227.664 299.307 242.262 307.121 242.41 307.198C242.457 307.223 242.51 307.236 242.563 307.236Z" fill="#030F1C"/>
</g>
</g>
<g style="mix-blend-mode:overlay" opacity="0.6">
<path d="M240.629 284.965L241.05 291.61C204.112 306.292 146.616 296.046 146.616 296.046L146.801 284.965H240.629Z" fill="#030F1C"/>
</g>
<g style="mix-blend-mode:overlay" opacity="0.6">
<path d="M196.728 353.21L205.573 320.197C205.573 320.197 210.206 338.076 208.218 357.42C206.229 376.764 208.218 381.694 208.218 381.694L196.728 353.21Z" fill="#030F1C"/>
</g>
<g style="mix-blend-mode:overlay" opacity="0.6">
<path d="M242.402 309.098C242.402 309.098 238.494 307.346 236.947 313.55C235.4 319.754 237.234 350.33 239.001 367.612C240.769 384.894 242.896 411.261 243.233 424.998C243.569 438.735 247.281 441.403 247.281 441.403C247.281 441.403 248.428 402.311 247.773 392.194C247.118 382.078 245.417 341.781 242.402 309.098Z" fill="white"/>
</g>
<g style="mix-blend-mode:overlay" opacity="0.6">
<path d="M194.151 369.177C194.151 369.177 181.574 383.849 178.657 403.537C175.739 423.225 173.308 462.295 171.835 472.339C170.362 482.383 166.883 493.499 173.322 494.367L194.151 369.177Z" fill="white"/>
</g>
<g style="mix-blend-mode:overlay" opacity="0.6">
<g style="mix-blend-mode:overlay" opacity="0.6">
<path d="M212.533 398.444C212.544 398.444 212.555 398.444 212.566 398.442C212.654 398.434 212.734 398.391 212.79 398.322C212.846 398.254 212.873 398.167 212.864 398.079C212.853 397.97 211.852 387.173 216.162 379.969C216.256 379.811 216.205 379.607 216.048 379.512C215.89 379.418 215.686 379.469 215.592 379.627C211.168 387.021 212.192 398.034 212.203 398.144C212.219 398.314 212.362 398.444 212.533 398.444Z" fill="#030F1C"/>
</g>
</g>
</g>
<path d="M118.583 218.664C139.346 166.658 140.188 150.969 155.181 145.791C155.516 145.629 155.86 145.487 156.21 145.363C162.102 143.295 180.22 139.455 180.22 139.455L203.009 149.733L215.277 141.227C215.277 141.227 234.11 149.359 239.865 154.34C240.848 155.014 241.781 155.761 242.655 156.573C249.518 163.05 255.923 172.457 260.999 181.592C265.222 189.267 269 197.18 272.314 205.291C272.574 205.93 273.144 206.389 273.822 206.504C274.499 206.619 275.189 206.375 275.643 205.858L295.549 183.351L296.525 182.27C296.224 181.542 296.303 180.713 296.735 180.055L299.916 175.202C300.636 174.104 303.558 173.922 304.653 174.643L320.586 185.247C321.681 185.969 321.869 189.21 321.149 190.308L318.52 194.417C317.826 195.472 316.429 195.797 315.343 195.155C295.361 230.582 286.062 241.51 276.148 241.187C271.734 241.043 267.431 238.382 262.415 234.161C253.679 226.819 245.905 218.397 239.28 209.096C239.207 208.994 239.139 208.893 239.067 208.792C238.314 217.809 237.706 225.757 237.666 230.444C237.579 240.822 238.628 252.829 238.918 266.338C239.056 272.735 245.105 285.308 240.17 289.381C224.245 302.527 146.341 289.381 146.341 289.381C146.466 281.711 147.454 274.081 149.287 266.634C150.779 261.235 151.758 255.708 152.214 250.126C143.402 248.893 139.065 247.908 133.533 246.794C116.49 243.356 112.936 232.809 118.583 218.664ZM148.71 222.734L151.537 223.594C151.407 220.289 151.262 216.572 151.11 212.623C149.529 215.792 148.291 218.314 147.497 219.946C147.24 220.472 147.228 221.085 147.461 221.621C147.695 222.158 148.151 222.565 148.71 222.734V222.734Z" fill="#91E8F6"/>
<path d="M231.185 277.307C231.243 277.307 231.301 277.291 231.351 277.262C237.147 273.909 239.156 266.73 239.239 266.426C239.287 266.248 239.183 266.065 239.006 266.017C238.829 265.968 238.646 266.073 238.598 266.25C238.578 266.322 236.574 273.471 231.019 276.685C230.888 276.76 230.825 276.914 230.864 277.06C230.903 277.206 231.035 277.307 231.185 277.307Z" fill="#0B122D"/>
<g style="mix-blend-mode:overlay" opacity="0.6">
<path d="M244.701 159.191C244.701 159.191 237.261 153.561 229.417 151.678C224.301 150.392 219.31 148.649 214.504 146.471L216.78 141.889C216.78 141.889 233.689 149.425 238.398 153.192C240.715 154.951 242.828 156.964 244.701 159.191Z" fill="white"/>
</g>
<g opacity="0.6">
<g style="mix-blend-mode:overlay" opacity="0.6">
<path d="M158.103 198.875C158.342 198.415 158.581 197.949 158.827 197.483C160.605 194.074 162.518 190.455 164.522 186.732C164.806 190.332 165.952 208.63 161.68 226.569C161.672 226.603 161.666 226.636 161.658 226.67L151.976 223.727C151.803 219.361 151.581 215.354 151.374 212.096C153.218 208.407 155.502 203.893 158.103 198.875Z" fill="#030F1C"/>
</g>
<g style="mix-blend-mode:overlay" opacity="0.6">
<path d="M151.951 250.089C154.411 250.435 157.225 250.801 160.515 251.194C162.291 261.623 167.156 271.274 174.475 278.894C182.446 287.359 198.927 289.381 210.76 295.224C188.1 296.471 146.341 289.381 146.341 289.381C146.341 289.381 146.221 278.604 150.332 262.353C151.231 258.321 151.773 254.217 151.951 250.089Z" fill="#030F1C"/>
</g>
</g>
<g style="mix-blend-mode:overlay" opacity="0.6">
<path d="M194.483 151.747L169.377 141.889L180.22 139.455L194.483 151.747Z" fill="#030F1C"/>
</g>
<g style="mix-blend-mode:overlay" opacity="0.6">
<path d="M315.235 195.098L297.414 183.35C296.343 182.644 309.427 185.843 312.901 191.216C315.151 194.695 317.851 192.421 318.591 190.648C319.629 188.16 317.765 183.37 317.765 183.37C317.781 183.345 320.375 185.143 320.39 185.118L320.586 185.247C321.681 185.969 321.868 189.21 321.149 190.308L318.52 194.417C317.8 195.515 316.329 195.82 315.235 195.098Z" fill="#030F1C"/>
</g>
<g style="mix-blend-mode:overlay" opacity="0.6">
<path d="M275.168 216.405C281.399 209.737 302.171 186.742 295.548 183.348L275.646 205.856C275.19 206.373 274.5 206.618 273.822 206.503C273.143 206.388 272.572 205.93 272.311 205.291C268.999 197.178 265.222 189.264 260.998 181.589C258.263 187.131 263.179 202.64 272.045 216.133C272.381 216.645 272.932 216.975 273.541 217.029C274.15 217.082 274.749 216.852 275.168 216.405Z" fill="white"/>
</g>
<path d="M277.252 217.542C277.385 217.542 277.506 217.462 277.558 217.338C277.61 217.215 277.583 217.073 277.49 216.977C273.582 212.935 274.171 207.376 274.177 207.32C274.199 207.138 274.068 206.972 273.886 206.951C273.704 206.93 273.539 207.061 273.518 207.243C273.49 207.483 272.88 213.166 277.014 217.441C277.076 217.505 277.162 217.542 277.252 217.542Z" fill="#0B122D"/>
<g style="mix-blend-mode:overlay" opacity="0.6">
<path d="M239.067 208.792C239.732 200.833 240.508 192.042 241.106 183.921C241.251 184.095 241.395 184.27 241.539 184.452C247.843 192.455 244.183 207.916 248.953 214.785C258.447 228.454 263.971 222.693 272.143 230.226C274.541 232.437 275.902 238.242 276.148 241.187C271.734 241.043 267.431 238.382 262.415 234.161C253.679 226.819 245.905 218.397 239.28 209.096C239.207 208.994 239.139 208.893 239.067 208.792Z" fill="#030F1C"/>
</g>
<path d="M200.423 261.073L223.625 221.589L229.97 210.788C230.474 209.929 231.394 209.401 232.388 209.402H269.988C271.1 209.531 272.089 210.174 272.659 211.141C272.783 211.316 272.896 211.499 272.998 211.688C273.156 211.971 273.285 212.27 273.383 212.581C273.383 212.587 273.39 212.587 273.39 212.594C273.693 213.326 273.669 214.153 273.323 214.866L273.363 214.786C273.346 214.834 273.326 214.88 273.303 214.926L273.283 214.952C273.277 214.959 273.277 214.966 273.27 214.972C273.253 215.014 273.233 215.054 273.21 215.092L252.54 250.272L248.793 256.642L243.663 265.377C243.159 266.236 242.239 266.763 241.245 266.763H203.645C203.508 266.762 203.37 266.751 203.234 266.729C201.061 266.723 199.32 262.951 200.423 261.073Z" fill="#3871D6"/>
<g style="mix-blend-mode:overlay" opacity="0.6">
<g style="mix-blend-mode:overlay" opacity="0.6">
<path d="M273.514 214.369C273.538 214.272 273.557 214.174 273.57 214.075C273.557 214.174 273.539 214.272 273.514 214.369Z" fill="#030F1C"/>
</g>
<g style="mix-blend-mode:overlay" opacity="0.6">
<path d="M273.365 214.785C273.343 214.83 273.328 214.879 273.302 214.923L273.269 214.976C273.303 214.912 273.336 214.849 273.365 214.785Z" fill="#030F1C"/>
</g>
<g style="mix-blend-mode:overlay" opacity="0.6">
<path d="M273.396 214.715C273.443 214.603 273.481 214.488 273.513 214.371C273.484 214.489 273.445 214.604 273.396 214.715Z" fill="#030F1C"/>
</g>
<g style="mix-blend-mode:overlay" opacity="0.6">
<path d="M203.232 266.729C202.308 266.593 201.513 266.004 201.111 265.159C200.708 264.315 200.751 263.325 201.225 262.518L224.879 222.268L230.772 212.234C231.276 211.375 232.196 210.847 233.191 210.848H270.79C271.925 210.842 272.95 211.528 273.381 212.581C273.284 212.27 273.154 211.971 272.996 211.688C272.896 211.498 272.782 211.315 272.657 211.141C272.087 210.174 271.099 209.531 269.986 209.402H232.387C231.392 209.401 230.472 209.929 229.968 210.788L223.623 221.589L200.421 261.072C199.319 262.951 201.059 266.723 203.232 266.729Z" fill="#030F1C"/>
</g>
</g>
<g style="mix-blend-mode:overlay" opacity="0.6">
<path d="M271.135 213.438H268.533C268.363 213.438 268.206 213.528 268.12 213.675L267.484 214.766C267.398 214.914 267.397 215.097 267.482 215.246C267.567 215.395 267.726 215.487 267.897 215.487H270.499C270.669 215.487 270.826 215.397 270.911 215.25L271.547 214.159C271.634 214.01 271.634 213.827 271.549 213.678C271.464 213.53 271.306 213.438 271.135 213.438Z" fill="#030F1C"/>
</g>
<g style="mix-blend-mode:overlay" opacity="0.6">
<path d="M245.485 231.374H242.072C241.067 231.414 240.127 231.884 239.491 232.665C238.024 234.402 238.704 236.586 240.711 236.586H244.124C245.128 236.546 246.068 236.076 246.704 235.295C248.171 233.558 247.492 231.374 245.485 231.374Z" fill="#030F1C"/>
</g>
<g style="mix-blend-mode:overlay" opacity="0.6">
<path d="M163.891 249.624L170.022 229.14C170.391 227.91 171.074 241.397 166.933 246.272C164.252 249.428 167.198 251.372 169.104 251.577C171.777 251.863 175.822 248.702 175.822 248.702C175.85 248.71 174.874 251.717 174.902 251.724L174.835 251.95C174.458 253.208 171.414 254.315 170.16 253.937L165.481 252.586C164.879 252.405 164.373 251.991 164.074 251.435C163.776 250.88 163.71 250.228 163.891 249.624Z" fill="#030F1C"/>
</g>
<path d="M161.547 251.403C161.723 251.403 161.867 251.266 161.878 251.09C161.889 250.915 161.762 250.761 161.588 250.739L145.046 248.686C144.928 248.671 144.811 248.72 144.739 248.815C144.667 248.91 144.651 249.037 144.698 249.147C144.745 249.257 144.846 249.333 144.965 249.347L161.506 251.4C161.52 251.402 161.534 251.403 161.547 251.403Z" fill="#0B122D"/>
<path d="M166.786 228.56C166.951 228.56 167.091 228.439 167.115 228.276C167.139 228.112 167.04 227.956 166.883 227.908L157.912 225.182C157.737 225.13 157.553 225.23 157.5 225.405C157.447 225.58 157.545 225.765 157.719 225.82L166.69 228.546C166.721 228.555 166.754 228.56 166.786 228.56Z" fill="#0B122D"/>
<g style="mix-blend-mode:overlay" opacity="0.6">
<path d="M140.364 221.827C143.187 216.522 150.18 203.385 151.504 200.92C152.647 198.801 156.355 198.175 158.103 198.875C153.045 208.634 149.166 216.516 147.447 220.047C147.203 220.549 147.191 221.132 147.414 221.644C147.637 222.155 148.073 222.542 148.606 222.703L169.644 229.098L170.002 229.206L168.922 232.815C160.759 232.192 147.007 227.117 141.531 224.986C140.932 224.753 140.462 224.274 140.239 223.67C140.016 223.066 140.061 222.395 140.364 221.827Z" fill="white"/>
</g>
<path d="M140.098 227.855C140.261 227.855 140.399 227.737 140.426 227.576C140.462 227.358 141.386 222.218 147.457 222.044C147.641 222.038 147.785 221.885 147.78 221.701C147.775 221.517 147.622 221.372 147.439 221.377C140.809 221.568 139.78 227.409 139.77 227.468C139.741 227.65 139.863 227.821 140.044 227.851C140.062 227.853 140.08 227.855 140.098 227.855Z" fill="#0B122D"/>
<path d="M159.464 194.169C159.532 194.169 159.598 194.148 159.653 194.109C169.153 187.495 169.183 173.096 169.183 172.951C169.182 172.768 169.033 172.62 168.85 172.62H168.848C168.76 172.621 168.676 172.656 168.614 172.719C168.552 172.782 168.518 172.867 168.518 172.955C168.519 173.096 168.484 187.149 159.274 193.562C159.155 193.645 159.103 193.796 159.147 193.935C159.19 194.074 159.319 194.169 159.464 194.169Z" fill="#0B122D"/>
<path d="M240.049 197.508C240.213 197.507 240.352 197.387 240.377 197.224C242.592 182.473 241.541 171.801 241.53 171.695C241.512 171.512 241.348 171.379 241.166 171.398C240.983 171.417 240.85 171.581 240.869 171.764C240.88 171.869 241.922 182.463 239.72 197.125C239.692 197.307 239.817 197.476 239.999 197.504C240.015 197.506 240.032 197.508 240.049 197.508Z" fill="#0B122D"/>
<path d="M222.389 231.8C224.157 228.872 221.436 224.967 220.569 225.271C220.11 225.431 218.152 228.194 216.115 230.978L215.784 231.429L215.453 231.878C213.856 234.041 212.304 236.045 211.482 236.649C209.499 238.106 206.625 238.543 205.182 239.082C204.106 239.262 203.01 239.286 201.927 239.154L201.936 239.092C201.655 239.068 192.017 237.003 182.063 234.859L181.428 234.723C181.004 234.631 180.579 234.54 180.156 234.449L175.264 250.535L197.172 253.876C197.184 253.898 197.194 253.923 197.206 253.945C200.042 254.443 203.279 255.225 205.293 256.393C208.548 258.279 216.52 258.743 219.361 258.062C224.11 258.514 230.687 259.057 231.899 258.738C233.834 258.227 233.273 256.384 232.216 255.733C231.843 255.503 233.101 255.163 234.458 254.847L234.74 254.782L235.021 254.718C235.675 254.57 236.303 254.432 236.733 254.319C238.897 253.75 238.27 251.688 237.089 250.961C236.325 250.491 238.994 249.772 240.669 249.331C242.834 248.761 242.206 246.7 241.025 245.973C240.731 245.792 240.123 245.547 239.494 245.286L239.178 245.154C237.991 244.651 236.899 244.116 237.869 243.861C240.033 243.291 239.405 241.23 238.224 240.503C237.708 240.185 234.565 239.82 231.193 239.51L230.644 239.46C230.552 239.452 230.461 239.444 230.369 239.436L229.544 239.364C227.441 239.184 225.399 239.032 223.994 238.931C223.619 238.894 223.225 238.858 222.829 238.822L222.433 238.785C220.853 238.633 219.339 238.441 218.988 237.968C218.443 237.234 220.622 234.728 222.389 231.8ZM338.037 111.997C335.618 111.181 330.762 121.093 327.976 128.802C327.67 129.649 326.528 132.128 325.927 133.528C325.677 134.108 325.508 134.496 325.508 134.496C323.811 134.034 321.996 134.441 320.657 135.584C318.893 137.196 318.359 142.294 318.23 143.948L318.217 144.13C318.201 144.349 318.195 144.472 318.195 144.472C317.219 152.235 316.748 156.555 316.748 156.555C316.835 156.843 311.461 165.318 306.181 173.773L305.848 174.307L305.349 175.107L319.848 184.756C320.453 183.703 321.073 182.615 321.695 181.516L322.006 180.966C322.058 180.874 322.11 180.782 322.162 180.69L322.629 179.862C322.681 179.77 322.732 179.678 322.784 179.586L323.094 179.035C323.146 178.943 323.197 178.851 323.249 178.759L323.557 178.209C327.45 171.255 330.947 164.79 330.947 164.79C336.729 162.715 338.308 160.363 342.272 155.223C342.981 154.308 343.642 153.393 344.245 152.496C344.327 152.378 344.399 152.271 344.474 152.16C344.801 151.665 345.114 151.177 345.41 150.697C347.793 146.814 349.029 143.518 348.54 142.387C347.303 139.546 344.219 141.011 344.035 141.101C344.153 140.891 345.692 137.767 343.945 135.924C342.534 134.445 339.806 135.393 339.172 135.641L339.099 135.671C339.059 135.687 339.038 135.696 339.038 135.696C339.038 135.696 340.668 131.698 338.332 130.79C335.013 129.49 333.307 131.605 332.987 132.177C337.915 118.231 340.189 112.723 338.037 111.997ZM200.928 145.424L203.009 149.733L203.846 145.662L200.928 145.424Z" fill="#FFB7B6"/>
<path d="M238.4 244.657C238.58 244.656 238.727 244.513 238.732 244.333C238.737 244.153 238.598 244.002 238.419 243.991L223.816 243.144C223.634 243.135 223.479 243.275 223.468 243.458C223.458 243.64 223.596 243.797 223.778 243.809L238.381 244.656L238.4 244.657Z" fill="#0B122D"/>
<path d="M237.978 251.294C238.156 251.294 238.302 251.154 238.309 250.976C238.317 250.798 238.184 250.645 238.007 250.629L223.155 249.325C222.973 249.309 222.812 249.444 222.796 249.627C222.78 249.811 222.915 249.972 223.098 249.988L237.949 251.293C237.959 251.294 237.968 251.294 237.978 251.294Z" fill="#0B122D"/>
<path d="M233.106 256.066C233.285 256.066 233.432 255.923 233.438 255.743C233.443 255.563 233.306 255.412 233.127 255.4L220.66 254.589C220.478 254.58 220.321 254.718 220.307 254.9C220.295 255.084 220.434 255.242 220.617 255.254L233.084 256.065L233.106 256.066Z" fill="#0B122D"/>
<path d="M328.942 143.176C329.126 143.18 329.272 143.331 329.269 143.515C329.254 144.381 329.362 145.466 329.965 145.722C330.83 146.089 332.615 144.759 333.536 143.832L334.304 143.059L334.097 144.131C333.739 145.985 333.946 147.22 334.712 147.804C336.263 148.985 339.67 147.304 339.704 147.288L340.24 147.02L340.183 147.617C340.049 149.03 340.3 149.995 340.929 150.486C341.885 151.232 343.466 150.679 343.482 150.673C343.654 150.611 343.845 150.701 343.907 150.874C343.969 151.047 343.88 151.238 343.707 151.3C343.236 151.458 342.743 151.54 342.247 151.543C341.63 151.564 341.023 151.378 340.523 151.014C339.798 150.45 339.45 149.476 339.487 148.116C338.386 148.577 335.795 149.464 334.311 148.335C333.479 147.702 333.142 146.564 333.305 144.944C332.395 145.711 330.821 146.808 329.706 146.336C328.948 146.014 328.577 145.061 328.604 143.504C328.604 143.415 328.64 143.33 328.704 143.268C328.768 143.206 328.854 143.173 328.942 143.176Z" fill="#0B122D"/>
<path d="M325.561 141.81C327.932 142.191 334.395 142.853 335.805 141.347C336.032 141.11 336.115 140.768 336.021 140.453C335.258 137.065 326.235 135.015 326.144 134.995C325.965 134.955 325.852 134.777 325.891 134.597C325.931 134.417 326.109 134.304 326.288 134.344C326.677 134.431 335.814 136.508 336.669 140.306C336.81 140.838 336.666 141.404 336.289 141.803C335.446 142.704 333.406 142.966 331.315 142.966C329.352 142.94 327.394 142.774 325.456 142.468C325.275 142.438 325.152 142.268 325.181 142.086C325.21 141.905 325.38 141.782 325.561 141.81H325.561Z" fill="#0B122D"/>
<path d="M341.116 146.827C341.023 146.984 340.822 147.037 340.665 146.947C340.507 146.856 340.451 146.656 340.539 146.496C341.322 145.121 342.054 143.693 342.714 142.252C342.79 142.084 342.987 142.011 343.154 142.088C343.321 142.164 343.394 142.362 343.318 142.529C342.65 143.989 341.909 145.435 341.116 146.827Z" fill="#0B122D"/>
<path d="M337.511 139.433C337.455 139.538 337.347 139.604 337.228 139.607C337.109 139.611 336.997 139.55 336.935 139.448C336.873 139.346 336.871 139.218 336.928 139.114L338.19 136.794C338.247 136.689 338.355 136.622 338.474 136.619C338.593 136.616 338.704 136.677 338.766 136.779C338.828 136.881 338.831 137.008 338.773 137.112L337.511 139.433Z" fill="#0B122D"/>
<path d="M210.416 135.467C210.416 135.467 210.112 140.173 204.443 142.761L203.009 149.733L206.715 147.163L210.37 152L215.277 141.228L210.416 135.467ZM183.249 128.081L180.22 139.455L194.483 151.747C195.079 150.174 195.806 148.655 196.657 147.206L203.009 149.733L199.799 143.085C187.109 135.116 183.249 128.081 183.249 128.081Z" fill="#2D2B72"/>
<g opacity="0.6">
<g style="mix-blend-mode:overlay" opacity="0.6">
<path d="M199.799 143.085L203.009 149.733L196.657 147.205C197.48 145.674 198.54 144.283 199.799 143.085Z" fill="#030F1C"/>
</g>
<g style="mix-blend-mode:overlay" opacity="0.6">
<path d="M204.443 142.761L203.009 149.733L206.715 147.163L204.443 142.761Z" fill="#030F1C"/>
</g>
</g>
</g>
<defs>
<filter id="filter0_d" x="304.665" y="0" width="247.1" height="318.186" filterUnits="userSpaceOnUse" color-interpolation-filters="sRGB">
<feFlood flood-opacity="0" result="BackgroundImageFix"/>
<feColorMatrix in="SourceAlpha" type="matrix" values="0 0 0 0 0 0 0 0 0 0 0 0 0 0 0 0 0 0 127 0"/>
<feOffset dy="2"/>
<feGaussianBlur stdDeviation="8"/>
<feColorMatrix type="matrix" values="0 0 0 0 0.028125 0 0 0 0 0.0845703 0 0 0 0 0.1875 0 0 0 0.05 0"/>
<feBlend mode="normal" in2="BackgroundImageFix" result="effect1_dropShadow"/>
<feBlend mode="normal" in="SourceGraphic" in2="effect1_dropShadow" result="shape"/>
</filter>
<linearGradient id="paint0_linear" x1="111.291" y1="228.901" x2="35.4979" y2="228.902" gradientUnits="userSpaceOnUse">
<stop stop-color="#30898F"/>
<stop offset="1" stop-color="#71CBB5"/>
</linearGradient>
<linearGradient id="paint1_linear" x1="103.335" y1="191.585" x2="37.135" y2="227.153" gradientUnits="userSpaceOnUse">
<stop stop-color="#82D6BC"/>
<stop offset="1" stop-color="#C5FDD4"/>
</linearGradient>
<linearGradient id="paint2_linear" x1="50.5729" y1="192.424" x2="95.4182" y2="224.654" gradientUnits="userSpaceOnUse">
<stop stop-color="#E9FFED"/>
<stop offset="1" stop-color="#CBFFD6"/>
</linearGradient>
<linearGradient id="paint3_linear" x1="82.3979" y1="231.418" x2="63.9731" y2="231.418" gradientUnits="userSpaceOnUse">
<stop stop-color="#094E61"/>
<stop offset="1" stop-color="#2A828A"/>
</linearGradient>
<linearGradient id="paint4_linear" x1="80.2687" y1="256.89" x2="68.2298" y2="256.89" gradientUnits="userSpaceOnUse">
<stop stop-color="#338C91"/>
<stop offset="0.533159" stop-color="#4AA39E"/>
<stop offset="1" stop-color="#7AD1B9"/>
</linearGradient>
<linearGradient id="paint5_linear" x1="296.912" y1="98.324" x2="291.499" y2="641.567" gradientUnits="userSpaceOnUse">
<stop stop-color="#3ED6EF"/>
<stop offset="1" stop-color="#3ED6EF" stop-opacity="0"/>
</linearGradient>
<linearGradient id="paint6_linear" x1="484.401" y1="413.107" x2="382.441" y2="413.107" gradientUnits="userSpaceOnUse">
<stop stop-color="#30898F"/>
<stop offset="1" stop-color="#71CBB5"/>
</linearGradient>
<linearGradient id="paint7_linear" x1="473.698" y1="362.907" x2="384.643" y2="410.754" gradientUnits="userSpaceOnUse">
<stop stop-color="#82D6BC"/>
<stop offset="1" stop-color="#C5FDD4"/>
</linearGradient>
<linearGradient id="paint8_linear" x1="402.721" y1="364.035" x2="463.048" y2="407.393" gradientUnits="userSpaceOnUse">
<stop stop-color="#E9FFED"/>
<stop offset="1" stop-color="#CBFFD6"/>
</linearGradient>
<linearGradient id="paint9_linear" x1="445.533" y1="416.491" x2="420.747" y2="416.491" gradientUnits="userSpaceOnUse">
<stop stop-color="#094E61"/>
<stop offset="1" stop-color="#2A828A"/>
</linearGradient>
<linearGradient id="paint10_linear" x1="442.669" y1="450.757" x2="426.474" y2="450.757" gradientUnits="userSpaceOnUse">
<stop stop-color="#338C91"/>
<stop offset="0.533159" stop-color="#4AA39E"/>
<stop offset="1" stop-color="#7AD1B9"/>
</linearGradient>
<clipPath id="clip0">
<rect width="233.211" height="498.378" fill="white" transform="matrix(-1 0 0 1 348.737 51.8379)"/>
</clipPath>
</defs>
</svg>
