<svg width="287" height="240" viewBox="0 0 287 240" fill="none" xmlns="http://www.w3.org/2000/svg">
<path opacity="0.1" fill-rule="evenodd" clip-rule="evenodd" d="M144.116 47.9434C178.542 45.9467 218.141 35.2611 241.643 60.483C266.161 86.7946 259.235 127.599 250.94 162.585C242.758 197.099 236.169 215.478 202.482 226.638C170.669 237.178 141.205 246.804 111.27 231.738C82.5835 217.301 41.0874 194.398 30.1661 164.21C18.4994 131.962 35.9143 84.9802 59.9234 60.483C81.3726 38.5976 113.515 49.7183 144.116 47.9434Z" fill="url(#paint0_linear)"/>
<mask id="mask0" mask-type="alpha" maskUnits="userSpaceOnUse" x="0" y="0" width="287" height="240">
<path fill-rule="evenodd" clip-rule="evenodd" d="M144.973 4.84745C187.389 2.39657 236.177 -10.7192 265.133 20.2389C295.341 52.5346 286.808 102.619 276.588 145.562C266.507 187.926 258.388 210.485 216.884 224.183C177.688 237.119 141.386 248.935 104.505 230.443C69.1612 212.722 18.0353 184.611 4.57944 147.557C-9.79475 107.974 11.6616 50.3076 41.2424 20.2389C67.6693 -6.62383 107.271 7.02596 144.973 4.84745Z" fill="#C4C4C4"/>
</mask>
<g mask="url(#mask0)">
<path d="M165.954 59.2701C165.954 50.5706 156.353 53.3437 154.719 53.8887C153.085 54.4337 149.272 41.8983 149.272 41.8983C149.272 41.8983 129.665 40.2633 125.852 44.0784C125.852 44.0784 124.763 60.4289 125.308 70.7842C125.852 81.1395 129.178 85.4896 132.99 85.4896C134.196 85.4218 135.381 85.145 136.492 84.6714V103.734L159.554 91.7725L156.714 69.2538C156.831 69.1852 156.898 69.1492 156.898 69.1492C156.898 69.1492 165.954 67.4863 165.954 59.2701Z" fill="#FFB7B6"/>
<path d="M125.229 58.2525C125.229 58.2525 126.293 49.3027 126.428 46.8249C126.623 43.2605 129.94 42.5126 131.891 45.0125C134.696 48.7249 139.457 50.3847 143.96 49.2202C147.911 48.2994 149.575 47.2422 149.937 51.2323C150.3 55.2224 151.658 61.8486 152.926 60.076C154.194 58.3035 155.612 54.4068 158.124 53.9537C161.962 53.2613 164.336 57.847 163.431 60.5822C162.525 63.3174 161.245 65.0233 156.507 67.6099L157.984 79.3252C169.724 63.7475 174.147 42.3543 158.223 37.4004C152.275 35.5497 146.095 23.5559 134.584 26.2844C126.428 28.2176 126.428 34.4704 125.848 39.9076C114.891 40.3607 125.229 58.2525 125.229 58.2525Z" fill="#352316"/>
<path d="M159.943 57.4113C157.328 56.5251 154.906 62.2142 154.805 62.4569C154.746 62.5957 154.811 62.7555 154.95 62.8141C154.983 62.8281 155.019 62.8353 155.056 62.8354C155.165 62.8354 155.264 62.7698 155.307 62.6688C155.73 61.6864 156.247 60.7477 156.852 59.866C157.402 59.7707 157.967 59.8745 158.447 60.1587C158.924 60.5143 159.228 61.055 159.285 61.6474C159.307 61.7789 159.42 61.8755 159.553 61.8757C159.568 61.8758 159.583 61.8746 159.598 61.872C159.669 61.8603 159.733 61.8208 159.775 61.7621C159.817 61.7034 159.834 61.6303 159.822 61.559C159.728 60.2416 158.605 59.2375 157.286 59.2916C158.061 58.3327 158.945 57.6499 159.768 57.9276C159.86 57.9589 159.962 57.9387 160.035 57.8745C160.108 57.8104 160.142 57.712 160.123 57.6164C160.104 57.5208 160.035 57.4426 159.943 57.4113H159.943Z" fill="#0B122D"/>
<path d="M136.493 84.9452C136.364 84.9452 136.253 84.855 136.227 84.7291C136.2 84.6031 136.265 84.4758 136.383 84.4236C136.473 84.3837 145.421 80.3775 149.197 75.5352C149.29 75.4164 149.461 75.3952 149.58 75.4878C149.699 75.5804 149.72 75.7517 149.627 75.8705C145.766 80.8214 136.975 84.7568 136.603 84.9218C136.568 84.9373 136.531 84.9452 136.493 84.9452Z" fill="#0B122D"/>
<path d="M149.254 46.5076C149.194 46.5078 149.135 46.4875 149.087 46.4501C144.977 43.2561 146.506 37.0656 146.573 36.8038C146.597 36.7091 146.67 36.6343 146.764 36.6079C146.858 36.5814 146.959 36.6072 147.028 36.6756C147.098 36.744 147.126 36.8444 147.101 36.9389C147.086 36.9996 145.595 43.0469 149.421 46.02C149.513 46.0915 149.549 46.2134 149.511 46.3234C149.474 46.4335 149.37 46.5075 149.254 46.5076Z" fill="white"/>
<g style="mix-blend-mode:overlay" opacity="0.6">
<path d="M136.511 84.7975C136.511 84.7975 144.359 81.144 146.895 78.4858C146.895 78.4858 146.309 85.6525 141.126 90.6894C135.943 95.7263 136.511 91.656 136.511 91.656L136.511 84.7975Z" fill="#030F1C"/>
</g>
<path d="M138.394 55.6626C138.471 56.5855 138.079 57.3713 137.517 57.4182C136.957 57.4649 136.44 56.755 136.363 55.8321C136.286 54.9092 136.679 54.1234 137.239 54.0767C137.8 54.0298 138.317 54.7397 138.394 55.6626" fill="#161B36"/>
<path d="M128.403 57.1954C128.48 58.1183 128.089 58.904 127.527 58.9509C126.967 58.9976 126.45 58.2877 126.373 57.3648C126.296 56.4419 126.688 55.6561 127.248 55.6094C127.81 55.5625 128.326 56.2725 128.403 57.1954" fill="#161B36"/>
<path d="M134.957 50.23C135.421 49.9426 135.989 49.7808 137.395 50.294C138.801 50.8071 140.571 52.8002 139.99 53.005C139.409 53.2105 138.326 51.6109 137.081 51.6666C135.837 51.7213 135.093 51.8496 134.777 51.5236C134.38 51.1142 134.735 50.3681 134.957 50.23Z" fill="#161B36"/>
<path d="M127.89 50.9634C127.361 50.8355 126.771 50.8586 125.595 51.7851C124.418 52.7115 123.358 55.1567 123.974 55.1704C124.589 55.1842 125.12 53.3272 126.321 52.9904C127.52 52.6539 128.266 52.5441 128.465 52.1367C128.715 51.6226 128.146 51.0255 127.89 50.9634" fill="#161B36"/>
<g style="mix-blend-mode:overlay" opacity="0.6">
<g style="mix-blend-mode:overlay" opacity="0.6">
<path d="M131.62 67.5615C131.211 67.5737 130.805 67.4919 130.433 67.3225C130.116 67.1786 129.88 66.8998 129.791 66.563C129.62 65.8642 130.252 64.7076 131.033 63.3797C131.233 63.0617 131.413 62.7316 131.572 62.3913C131.72 61.99 131.375 58.4772 130.956 55.313L131.496 55.2417C131.641 56.3386 132.352 61.8489 132.082 62.5797C131.915 62.9517 131.721 63.3114 131.502 63.6559C131.011 64.4926 130.187 65.8924 130.32 66.4332C130.371 66.6152 130.503 66.7636 130.678 66.8361C131.485 67.1069 132.365 67.0608 133.14 66.7073L133.35 67.2108C132.801 67.438 132.213 67.5571 131.62 67.5615Z" fill="#030F1C"/>
</g>
</g>
<path d="M140.339 73.5612C140.339 75.2671 138.526 76.646 136.292 76.646C135.62 76.6488 134.953 76.5173 134.332 76.259C133.084 75.7358 132.24 74.722 132.24 73.5612C132.24 71.8552 134.054 70.4763 136.292 70.4763C138.259 70.4763 139.904 71.5501 140.263 72.9725C140.313 73.1648 140.339 73.3626 140.339 73.5612Z" fill="#161B36"/>
<path d="M140.34 73.5616C140.34 75.2674 138.526 76.6463 136.293 76.6463C135.62 76.6492 134.953 76.5176 134.332 76.2594C134.942 75.3927 137.072 72.7276 140.263 72.9729C140.313 73.1651 140.339 73.3629 140.34 73.5616Z" fill="#E55151"/>
<path d="M111.279 209.656C111.279 209.656 104.885 290.492 105.247 303.904C105.609 317.316 106.696 399.962 106.696 399.962C106.696 399.962 115.39 404.674 124.446 399.962C124.446 399.962 129.879 348.852 132.415 333.628C134.951 318.403 134.226 297.742 134.226 297.742L147.267 265.481L169.788 401.012C169.788 401.012 181.317 403.949 186.751 400.324C186.751 400.324 185.664 374.588 186.751 349.214C187.838 323.841 185.664 305.354 182.404 295.567C182.404 295.567 189.644 243.73 188.195 209.656H111.279Z" fill="#2D2B72"/>
<g opacity="0.6">
<g style="mix-blend-mode:overlay" opacity="0.6">
<g style="mix-blend-mode:overlay" opacity="0.6">
<path d="M187.99 231.684C187.973 231.684 187.957 231.683 187.941 231.68C171.094 228.68 173.861 209.993 173.89 209.804C173.914 209.656 174.054 209.555 174.202 209.579C174.35 209.602 174.452 209.741 174.429 209.89C174.399 210.073 171.719 228.238 188.037 231.144C188.176 231.168 188.273 231.295 188.26 231.436C188.248 231.576 188.131 231.684 187.99 231.684Z" fill="#030F1C"/>
</g>
</g>
<g style="mix-blend-mode:overlay" opacity="0.6">
<g style="mix-blend-mode:overlay" opacity="0.6">
<path d="M109.697 227.874C109.572 227.874 109.463 227.789 109.433 227.667C109.403 227.545 109.46 227.418 109.571 227.36C109.689 227.299 121.347 221.064 120.731 209.862C120.727 209.79 120.752 209.719 120.8 209.665C120.848 209.611 120.916 209.579 120.988 209.575C121.06 209.57 121.131 209.594 121.185 209.643C121.239 209.691 121.271 209.759 121.274 209.832C121.91 221.388 109.944 227.78 109.823 227.844C109.784 227.864 109.741 227.874 109.697 227.874Z" fill="#030F1C"/>
</g>
</g>
<g style="mix-blend-mode:overlay" opacity="0.6">
<path d="M111.282 209.657L110.938 215.092C141.217 227.102 188.349 218.721 188.349 218.721L188.197 209.657H111.282Z" fill="#030F1C"/>
</g>
<g style="mix-blend-mode:overlay" opacity="0.6">
<path d="M147.269 265.481L140.019 238.477C140.019 238.477 136.221 253.102 137.851 268.925C139.481 284.748 137.851 288.781 137.851 288.781L147.269 265.481Z" fill="#030F1C"/>
</g>
<g style="mix-blend-mode:overlay" opacity="0.6">
<path d="M109.829 229.398C109.829 229.398 113.032 227.964 114.3 233.039C115.568 238.114 114.065 263.125 112.616 277.262C111.167 291.399 109.423 312.966 109.148 324.203C108.872 335.44 105.829 337.622 105.829 337.622C105.829 337.622 104.888 305.645 105.425 297.37C105.962 289.095 107.357 256.132 109.829 229.398Z" fill="white"/>
</g>
</g>
<path d="M250.397 122.897L237.24 114.37C236.341 113.782 233.85 114.698 233.262 115.597L231.041 118.915C230.579 119.626 230.632 120.554 231.171 121.208L214.37 140.164C213.996 140.587 213.431 140.787 212.875 140.693C212.318 140.599 211.85 140.224 211.637 139.702C208.922 133.066 205.825 126.592 202.363 120.313C196.948 110.592 190.365 100.785 182.708 96.438C182.047 95.9359 181.311 95.5406 180.528 95.2664C175.698 93.5748 160.847 90.4333 160.847 90.4333L142.166 98.8407L132.109 91.8832C132.109 91.8832 113.876 99.737 110.979 103.603C110.874 103.751 110.791 103.912 110.731 104.083C105.983 108.99 102.786 117.493 98.0871 125.93C93.8087 133.615 89.6076 141.408 85.9541 145.591C85.3922 146.223 84.5861 146.584 83.7405 146.581C82.8949 146.579 82.091 146.213 81.5327 145.578C81.5327 145.578 73.7102 136.826 64.7719 126.753C65.2787 126.031 65.2354 125.058 64.6666 124.384L61.5961 120.761C60.9015 119.941 58.5056 120.084 57.6864 120.779L45.7747 130.976C44.9556 131.671 45.1246 134.321 45.8194 135.141L48.3662 138.216C48.8928 138.835 49.7494 139.06 50.5123 138.78C64.8954 163.325 72.1713 174.487 77.681 176.466C82.5359 178.21 88.4576 176.602 92.9871 172.073C101.104 163.957 107.612 156.497 112.86 150.215C113.356 156.308 113.728 161.569 113.756 164.863C113.827 173.352 112.968 183.173 112.729 194.224C112.616 199.456 107.658 209.741 111.703 213.073C124.757 223.826 188.618 213.073 188.618 213.073C188.516 206.799 187.706 200.557 186.203 194.465C183.125 182.761 183.547 176.825 183.909 169.937C184.056 167.142 184.462 156.742 184.908 145.112C190.846 152.665 196.677 159.398 202.429 164.789C213.115 174.805 219.11 173.848 235.858 147.735C237.857 144.619 243.24 136.687 246.59 131.366C247.448 131.702 248.424 131.39 248.928 130.619L251.526 126.643C252.114 125.743 251.296 123.486 250.397 122.897Z" fill="#91E8F6"/>
<g style="mix-blend-mode:overlay" opacity="0.6">
<path d="M101.707 129.689C100.504 132.714 98.69 136.698 94.7032 143.222C90.7218 149.745 85.5857 155.032 79.1316 149.598C73.9192 145.205 67.2963 135.853 65.3137 133.193C63.3312 130.539 65.3137 127.362 65.3137 127.362C74.0226 137.172 81.5334 145.576 81.5334 145.576C82.092 146.211 82.8956 146.576 83.7411 146.579C84.5865 146.583 85.3928 146.223 85.956 145.592C89.6052 141.407 93.8099 133.613 98.0854 125.928C98.5157 125.149 98.9404 124.375 99.3436 123.595H99.3489C99.3489 123.595 102.916 126.669 101.707 129.689Z" fill="#DCE4EF"/>
</g>
<g style="mix-blend-mode:overlay" opacity="0.6">
<path d="M110.919 126.568C105.724 133.318 107.755 148.522 103.46 153.795C99.128 159.114 91.0191 163.201 92.9873 172.072C101.014 163.623 107.742 156.474 112.865 150.264C112.267 142.916 111.49 134.354 110.919 126.568Z" fill="#030F1C"/>
</g>
<path d="M80.913 156.421C80.8036 156.421 80.7049 156.355 80.6622 156.255C80.6196 156.154 80.6412 156.037 80.7172 155.959C83.9213 152.652 83.4384 148.105 83.433 148.059C83.4248 147.987 83.4453 147.915 83.4902 147.859C83.5351 147.802 83.6006 147.766 83.6724 147.757C83.7443 147.748 83.817 147.768 83.8739 147.813C83.9308 147.858 83.9671 147.924 83.9745 147.996C83.9974 148.192 84.4968 152.841 81.1087 156.338C81.0574 156.391 80.9868 156.421 80.913 156.421Z" fill="#0B122D"/>
<path d="M111.748 138.041C111.613 138.041 111.499 137.942 111.479 137.809C109.664 125.742 110.525 117.014 110.534 116.927C110.552 116.779 110.684 116.671 110.833 116.684C110.904 116.691 110.97 116.727 111.016 116.783C111.062 116.839 111.083 116.911 111.076 116.982C111.067 117.069 110.213 125.734 112.018 137.728C112.028 137.8 112.01 137.872 111.967 137.93C111.925 137.989 111.86 138.027 111.789 138.038C111.775 138.04 111.762 138.041 111.748 138.041Z" fill="#0B122D"/>
<path d="M119.068 203.195C119.02 203.195 118.973 203.183 118.931 203.158C114.18 200.415 112.533 194.544 112.466 194.295C112.44 194.201 112.466 194.1 112.535 194.031C112.603 193.962 112.704 193.934 112.798 193.959C112.892 193.984 112.966 194.057 112.991 194.151C113.007 194.21 114.65 200.058 119.204 202.687C119.31 202.749 119.362 202.874 119.33 202.993C119.298 203.112 119.191 203.195 119.068 203.195Z" fill="#0B122D"/>
<g style="mix-blend-mode:overlay" opacity="0.6">
<path d="M185.149 145.421C181.36 140.613 177.527 135.465 173.643 130.11C173.354 134.597 172.84 148.268 176.044 161.692C181.011 182.503 173.25 196.338 165.555 204.493C159.022 211.418 145.511 213.072 135.812 217.852C154.386 218.872 188.618 213.072 188.618 213.072C188.618 213.072 188.618 201.583 185.347 190.963C182.214 180.069 184.4 153.393 185.149 145.421Z" fill="#030F1C"/>
</g>
<g style="mix-blend-mode:overlay" opacity="0.6">
<path d="M149.152 100.487L169.733 92.4238L160.845 90.4329L149.152 100.487Z" fill="#030F1C"/>
</g>
<g style="mix-blend-mode:overlay" opacity="0.6">
<path d="M51.1062 138.44L64.4401 127.126C65.2409 126.446 54.9127 130.347 52.6193 135.056C51.1345 138.105 48.7116 136.527 47.9333 135.161C46.8419 133.245 47.8828 129.17 47.8828 129.17C47.8673 129.151 45.9354 130.869 45.9207 130.85L45.7738 130.975C44.9546 131.67 45.1237 134.32 45.8184 135.14L48.3652 138.215C48.6988 138.608 49.175 138.853 49.689 138.896C50.203 138.938 50.7128 138.774 51.1062 138.44Z" fill="#030F1C"/>
</g>
<path d="M215.396 150.543C215.322 150.543 215.251 150.513 215.2 150.46C211.812 146.964 212.312 142.315 212.334 142.119C212.352 141.97 212.487 141.863 212.636 141.881C212.786 141.898 212.893 142.033 212.876 142.182C212.871 142.228 212.388 146.775 215.592 150.081C215.668 150.16 215.689 150.276 215.647 150.377C215.604 150.478 215.505 150.543 215.396 150.543Z" fill="#0B122D"/>
<g style="mix-blend-mode:overlay" opacity="0.6">
<path d="M231.603 121.608L246.235 131.182C247.114 131.757 240.439 122.958 235.276 122.097C231.933 121.54 232.755 118.767 233.843 117.632C235.368 116.04 239.568 115.879 239.568 115.879C239.582 115.859 237.386 114.495 237.4 114.475L237.239 114.37C236.34 113.781 233.849 114.697 233.261 115.597L231.04 118.915C230.757 119.347 230.658 119.873 230.764 120.378C230.87 120.883 231.171 121.326 231.603 121.608Z" fill="#030F1C"/>
</g>
<path d="M177.419 134.742C177.364 134.742 177.31 134.725 177.264 134.694C169.476 129.282 169.452 117.504 169.452 117.386C169.451 117.313 169.479 117.243 169.531 117.192C169.583 117.14 169.653 117.113 169.726 117.115C169.876 117.116 169.998 117.239 169.997 117.389C169.996 117.505 170.025 129 177.575 134.246C177.673 134.313 177.715 134.437 177.68 134.551C177.644 134.665 177.539 134.742 177.419 134.742Z" fill="#0B122D"/>
<path d="M136.092 87.1705C136.092 87.1705 136.341 91.0203 140.988 93.1374L142.164 98.8402L139.126 96.7383L136.13 100.695L132.107 91.8828L136.092 87.1705ZM158.362 81.1292L160.845 90.4329L149.153 100.487C148.665 99.201 148.069 97.9583 147.371 96.7728L142.164 98.8402L144.795 93.4022C155.198 86.8836 158.362 81.1292 158.362 81.1292Z" fill="#2D2B72"/>
<g opacity="0.6">
<g style="mix-blend-mode:overlay" opacity="0.6">
<path d="M144.798 93.4031L142.166 98.8411L147.373 96.7736C146.698 95.5208 145.829 94.3831 144.798 93.4031Z" fill="#030F1C"/>
</g>
<g style="mix-blend-mode:overlay" opacity="0.6">
<path d="M140.99 93.1375L142.166 98.8405L139.127 96.7384L140.99 93.1375Z" fill="#030F1C"/>
</g>
</g>
<path d="M14.6133 81.3597C14.6133 81.3597 16.593 81.5572 17.0914 82.2174C17.7408 82.1558 18.3835 82.3898 18.8415 82.8546C19.2995 83.3194 19.5242 83.9657 19.4534 84.6147C19.4304 85.5561 19.5021 87.1815 19.6022 88.8637L19.6502 89.6418C19.8194 92.2986 20.034 94.8567 20.034 94.8567L21.3286 84.8565C21.3286 84.8565 23.7614 85.3337 23.2845 87.7681C23.0258 89.7028 22.9792 91.6601 23.1456 93.605C23.1811 94.1567 23.4831 94.6565 23.9548 94.9444L27.3605 97.0189C27.9757 97.393 28.6745 97.6075 29.3936 97.643C31.6484 97.7568 36.8858 98.2485 39.1673 100.374C42.1168 103.123 42.5289 105.438 42.5289 105.438L56.6663 121.652L47.8974 129.158C42.74 120.875 34.1549 108.563 28.2254 107.723C22.0364 106.845 19.7732 103.603 18.7936 100.841C17.814 98.0785 15.3818 96.1376 15.7481 91.4363C16.1144 86.7351 14.6133 81.3597 14.6133 81.3597ZM280.555 77.0991C280.555 77.0991 279.054 82.4744 279.42 87.1757C279.787 91.877 277.354 93.8179 276.375 96.5802C275.395 99.3425 273.132 102.585 266.943 103.462C261.664 104.21 254.281 114.051 249.085 122.047L239.73 115.983L252.64 101.178C252.64 101.178 253.052 98.8621 256.001 96.1138C258.283 93.9879 263.52 93.4962 265.775 93.3824C266.494 93.3469 267.193 93.1324 267.808 92.7583L271.214 90.6838C271.686 90.3959 271.988 89.8961 272.023 89.3444C272.189 87.3995 272.143 85.4422 271.884 83.5075C271.407 81.0731 273.84 80.5959 273.84 80.5959L275.135 90.5961C275.135 90.5961 275.778 82.9249 275.715 80.354C275.644 79.7051 275.869 79.0588 276.327 78.594C276.785 78.1292 277.428 77.8952 278.077 77.9568C278.576 77.2966 280.555 77.0991 280.555 77.0991ZM143.925 95.2036L142.166 98.8405L141.479 95.5105L143.925 95.2036Z" fill="#FFB7B6"/>
<path d="M17.2928 82.8853C17.2968 82.8131 17.272 82.7423 17.2238 82.6885C17.1756 82.6347 17.108 82.6023 17.0359 82.5984C16.9633 82.5922 16.8913 82.6162 16.837 82.6649C16.7828 82.7136 16.751 82.7825 16.7492 82.8554C16.7301 83.2089 16.2897 91.5267 16.9067 93.5775C16.9341 93.6714 17.0099 93.7434 17.1051 93.766C17.2002 93.7887 17.3002 93.7584 17.367 93.6869C17.4337 93.6153 17.457 93.5134 17.4279 93.4199C16.8386 91.4602 17.2886 82.9704 17.2928 82.8853Z" fill="#0B122D"/>
<path d="M20.4865 96.8541C20.4363 96.7122 20.2806 96.6378 20.1387 96.6881C19.9968 96.7383 19.9225 96.8942 19.9727 97.0362C20.0153 97.1565 21.0296 99.9949 22.1716 100.869C22.2489 100.929 22.3521 100.943 22.4422 100.905C22.5323 100.868 22.5955 100.785 22.6079 100.688C22.6203 100.591 22.5801 100.495 22.5024 100.436C21.4886 99.6601 20.4961 96.8823 20.4865 96.8541Z" fill="#0B122D"/>
<path d="M34.586 101.273C28.5539 100.965 23.8994 95.4897 23.8526 95.4343C23.7557 95.3196 23.5845 95.3049 23.4695 95.4013C23.3545 95.4978 23.3391 95.6691 23.435 95.7845C23.6302 96.0177 28.2848 101.498 34.5584 101.817L34.5722 101.818C34.7197 101.817 34.8402 101.7 34.8441 101.552C34.8477 101.404 34.7333 101.281 34.586 101.273L34.586 101.273Z" fill="#0B122D"/>
<path d="M278.421 78.5944C278.42 78.5213 278.388 78.4519 278.334 78.4031C278.279 78.3543 278.207 78.3304 278.134 78.3374C278.062 78.3413 277.994 78.3737 277.946 78.4275C277.898 78.4813 277.873 78.5521 277.877 78.6242C277.881 78.7094 278.331 87.1992 277.742 89.1594C277.721 89.2286 277.729 89.3032 277.763 89.3669C277.797 89.4305 277.855 89.4778 277.924 89.4985C277.95 89.5063 277.976 89.5102 278.003 89.5102C278.123 89.5102 278.229 89.4312 278.263 89.3159C278.88 87.2657 278.44 78.9478 278.421 78.5944Z" fill="#0B122D"/>
<path d="M275.032 92.4271C274.89 92.3774 274.735 92.4515 274.684 92.5931C274.675 92.6213 273.682 95.3991 272.669 96.1751C272.549 96.2665 272.526 96.4376 272.618 96.5573C272.709 96.6769 272.88 96.6998 272.999 96.6084C274.141 95.7339 275.156 92.8954 275.198 92.7751C275.248 92.6332 275.174 92.4776 275.032 92.4271Z" fill="#0B122D"/>
<path d="M271.32 91.1738C271.273 91.2292 266.618 96.7049 260.586 97.0126C260.439 97.0202 260.325 97.144 260.328 97.2915C260.332 97.4391 260.453 97.5568 260.6 97.557L260.614 97.5565C266.887 97.2371 271.542 91.7572 271.737 91.524C271.833 91.4086 271.818 91.2373 271.703 91.1408C271.588 91.0444 271.417 91.0591 271.32 91.1738L271.32 91.1738Z" fill="#0B122D"/>
</g>
<defs>
<linearGradient id="paint0_linear" x1="145.152" y1="43.9941" x2="142.757" y2="289.884" gradientUnits="userSpaceOnUse">
<stop stop-color="#3ED6EF"/>
<stop offset="1" stop-color="#3ED6EF" stop-opacity="0"/>
</linearGradient>
</defs>
</svg>
