<svg width="180" height="32" viewBox="0 0 180 32" fill="none" xmlns="http://www.w3.org/2000/svg">
<path d="M12.1984 6.06649C11.199 6.45951 10.2627 6.992 9.4404 7.66395C7.94752 7.70198 8.42827 6.48487 8.42827 6.48487C9.4151 5.68614 10.5411 5.03954 11.7556 4.58313C11.7556 4.57045 12.7678 4.8874 12.1984 6.06649Z" fill="#6E64A6"/>
<path d="M7.80812 9.28692C6.59357 10.7956 5.78387 12.634 5.55614 14.6498C4.7844 15.6514 4.0253 14.6879 4 14.6498C4.25303 12.241 5.2019 10.0476 6.64417 8.27265C6.63152 8.27265 7.69425 8.01909 7.80812 9.28692Z" fill="#6E64A6"/>
<path d="M27.9999 15.9049C27.9999 22.5864 22.6104 28 15.9556 28C10.6546 28 6.15069 24.5515 4.54395 19.7718C4.5566 19.7338 4.78432 18.4659 6.03683 19.3534C7.4538 23.4865 11.3631 26.4406 15.9556 26.4406C19.8523 26.4406 23.2429 24.3106 25.0521 21.1537C25.1027 21.0777 25.1407 20.9889 25.1913 20.9128C24.9762 20 24.0653 19.9746 23.5972 20.0254C23.4327 20.038 23.3315 20.0634 23.3315 20.0634L23.5086 20.1775C22.0284 22.8399 19.1944 24.6276 15.943 24.6276C13.7416 24.6276 11.73 23.8035 10.1992 22.4469C10.1992 22.3962 10.1992 22.3455 10.1992 22.2948C10.1992 22.2821 10.1992 22.2567 10.1992 22.2441C10.1992 22.2187 10.1992 22.206 10.1992 22.1807C10.1992 22.1553 10.2118 22.13 10.2118 22.1046C10.2118 22.0792 10.2245 22.0539 10.2245 22.0412C10.2245 22.0285 10.2245 22.0285 10.2245 22.0158C10.2245 22.0032 10.2371 21.9905 10.2371 21.9651C10.2371 21.9398 10.2498 21.9271 10.2498 21.9017C10.2498 21.8891 10.2498 21.8891 10.2624 21.8764V21.8637V21.851C10.2624 21.851 10.2624 21.851 10.2624 21.8384C10.2624 21.8257 10.2751 21.813 10.2751 21.8003V21.7876C10.2751 21.775 10.2751 21.775 10.2877 21.7623C10.2877 21.7496 10.2877 21.7496 10.3004 21.7369C10.3004 21.7242 10.3131 21.7116 10.3131 21.7116C10.3131 21.6989 10.3131 21.6989 10.3257 21.6989C10.3384 21.6862 10.3384 21.6735 10.351 21.6482C10.351 21.6355 10.3637 21.6228 10.3763 21.6228C10.3763 21.6101 10.389 21.6101 10.389 21.6101C10.4143 21.5721 10.4396 21.5468 10.4649 21.5087L10.4775 21.496L10.4902 21.4834C10.5155 21.4707 10.5281 21.4453 10.5534 21.4326C10.5787 21.42 10.604 21.4073 10.6167 21.3946C10.642 21.3819 10.6546 21.3693 10.6799 21.3693C10.6926 21.3566 10.7179 21.3566 10.7432 21.3439C10.7559 21.3439 10.7685 21.3312 10.7812 21.3312C10.7938 21.3312 10.8065 21.3312 10.8191 21.3185C10.8444 21.3185 10.8571 21.3185 10.8824 21.3059C10.895 21.3059 10.9077 21.3059 10.9203 21.3059C10.9583 21.3059 10.9962 21.3059 11.0342 21.3059H11.0468C11.0595 21.3059 11.0721 21.3059 11.0848 21.3059C11.0974 21.3059 11.0974 21.3059 11.0974 21.3059C11.1228 21.3059 11.1354 21.3185 11.1481 21.3185C11.1607 21.3185 11.1607 21.3185 11.1607 21.3185C11.1607 21.3185 11.1607 21.3185 11.1734 21.3185H11.186C12.4385 22.4216 14.0832 23.0935 15.8924 23.0935C19.8397 23.0935 23.0405 19.8732 23.0405 15.9176C23.0405 11.9493 19.8397 8.74168 15.8924 8.74168C11.9451 8.74168 8.74426 11.962 8.74426 15.9176C8.74426 16.9952 8.98464 18.0222 9.40214 18.9477C9.40214 18.9477 9.40214 18.9477 9.40214 18.9604C9.40214 18.9604 9.40214 18.9604 9.40214 18.9731C9.40214 18.9857 9.40214 18.9984 9.38949 19.0111C9.38949 19.0238 9.38949 19.0364 9.37684 19.0618C9.37684 19.0745 9.36419 19.0872 9.36419 19.1125C9.35153 19.1506 9.33888 19.2013 9.32623 19.252C9.32623 19.2647 9.31358 19.2647 9.31358 19.2773C9.31358 19.29 9.30093 19.3027 9.30093 19.3154C9.30093 19.328 9.28828 19.3407 9.28828 19.3534C9.27562 19.3788 9.26297 19.3914 9.25032 19.4168C9.25032 19.4295 9.23767 19.4295 9.23767 19.4422C9.23767 19.4548 9.22502 19.4548 9.22502 19.4675C9.21237 19.4802 9.21237 19.4929 9.19972 19.5055C9.18706 19.5182 9.18706 19.5309 9.17441 19.5436C9.16176 19.5563 9.14911 19.5689 9.14911 19.5816C9.14911 19.5816 9.14911 19.5816 9.14911 19.5943C9.13646 19.607 9.13646 19.607 9.12381 19.6196C9.0985 19.645 9.0732 19.6577 9.0479 19.683C9.03524 19.6957 9.02259 19.6957 9.00994 19.7084C8.99729 19.7211 8.98464 19.7211 8.97199 19.7338L8.95934 19.7464C8.94668 19.7464 8.94668 19.7591 8.93403 19.7591C8.92138 19.7718 8.90873 19.7718 8.88343 19.7718C8.84547 19.7845 8.82017 19.7971 8.78221 19.7971C8.70631 19.8098 8.6304 19.8098 8.52918 19.7971C8.50388 19.7971 8.47858 19.7845 8.45327 19.7845C8.42797 19.7845 8.40267 19.7718 8.37736 19.7718C8.35206 19.7591 8.32676 19.7591 8.30146 19.7464C8.27615 19.7338 8.2635 19.7338 8.2382 19.7211C8.21289 19.7084 8.20024 19.7084 8.17494 19.6957C8.13699 19.6704 8.08638 19.6577 8.03577 19.6323C7.51706 18.5166 7.22607 17.2615 7.22607 15.9556C7.22607 11.1506 11.1101 7.24564 15.905 7.24564C20.2572 7.24564 23.8502 10.4532 24.4828 14.6498L24.331 14.6751C24.3436 14.6878 24.4069 14.7512 24.5081 14.8399C24.8876 15.1315 25.7479 15.6133 26.3173 14.6371C26.3552 14.5737 26.3932 14.4849 26.4311 14.4089L26.2793 14.4216C25.6214 9.88273 22.0663 6.26941 17.5624 5.55943C16.4111 4.45642 17.6889 4 17.6889 4C23.5466 4.81141 27.9999 9.84469 27.9999 15.9049Z" fill="#6E64A6"/>
<path d="M16.9553 10.7069L12.2996 16.8812L14.6528 16.5896L14.1973 20.9129C12.1478 20.1775 10.6802 18.2251 10.6802 15.9176C10.6802 12.989 13.046 10.6181 15.9559 10.6181C16.0571 10.6181 16.1583 10.6181 16.2595 10.6308L16.2722 10.6181C16.4999 10.4153 17.5879 9.85742 17.5879 9.85742L16.9553 10.7069Z" fill="#32C2D9"/>
<path d="M21.244 15.9048C21.244 18.8335 18.8782 21.2044 15.9683 21.2044C15.8545 21.2044 15.7533 21.2044 15.6394 21.1917C15.0954 21.4453 14.2983 21.851 14.2983 21.851L14.9436 21.1029L19.5614 15.7907L17.0943 16.0443L17.5751 10.8589C19.7132 11.5562 21.244 13.5467 21.244 15.9048Z" fill="#32C2D9"/>
<path d="M41.0432 24C39.3321 24 37.7889 23.638 36.4137 22.9139C35.0384 22.1741 33.959 21.1588 33.1754 19.8681C32.3918 18.5616 32 17.1056 32 15.5C32 13.8944 32.3918 12.4463 33.1754 11.1556C33.959 9.84907 35.0384 8.8338 36.4137 8.10972C37.7889 7.36991 39.3321 7 41.0432 7C42.7543 7 44.2975 7.36991 45.6728 8.10972C47.0481 8.8338 48.1275 9.8412 48.9111 11.1319C49.6947 12.4227 50.0865 13.8787 50.0865 15.5C50.0865 17.1213 49.6947 18.5773 48.9111 19.8681C48.1275 21.1588 47.0481 22.1741 45.6728 22.9139C44.2975 23.638 42.7543 24 41.0432 24ZM41.0432 21.3083C42.1626 21.3083 43.1701 21.0644 44.0656 20.5764C44.9612 20.0727 45.6648 19.3801 46.1765 18.4986C46.6883 17.6014 46.9441 16.6019 46.9441 15.5C46.9441 14.3981 46.6883 13.4065 46.1765 12.525C45.6648 11.6278 44.9612 10.9352 44.0656 10.4472C43.1701 9.94352 42.1626 9.69167 41.0432 9.69167C39.9238 9.69167 38.9164 9.94352 38.0208 10.4472C37.1253 10.9352 36.4217 11.6278 35.9099 12.525C35.3982 13.4065 35.1423 14.3981 35.1423 15.5C35.1423 16.6019 35.3982 17.6014 35.9099 18.4986C36.4217 19.3801 37.1253 20.0727 38.0208 20.5764C38.9164 21.0644 39.9238 21.3083 41.0432 21.3083Z" fill="#6E64A6"/>
<path d="M68.8157 23.7639L68.7917 12.8083L63.2746 21.875H61.8834L56.3663 12.95V23.7639H53.3919V7.23611H55.9585L62.627 18.1917L69.1755 7.23611H71.7422L71.7662 23.7639H68.8157Z" fill="#6E64A6"/>
<path d="M91.2218 7.23611V23.7639H88.6551L79.396 12.5722V23.7639H76.3017V7.23611H78.8683L88.1274 18.4278V7.23611H91.2218Z" fill="#6E64A6"/>
<path d="M95.7211 7.23611H98.8395V23.7639H95.7211V7.23611Z" fill="#6E64A6"/>
<path d="M135.993 21.1903V23.7639H123.4V7.23611H135.658V9.80972H126.518V14.1069H134.626V16.6333H126.518V21.1903H135.993Z" fill="#6E64A6"/>
<path d="M142.876 9.83333H137.311V7.23611H151.559V9.83333H145.994V23.7639H142.876V9.83333Z" fill="#6E64A6"/>
<path d="M153.9 7.23611H157.018V23.7639H153.9V7.23611Z" fill="#6E64A6"/>
<path d="M169.332 24C167.636 24 166.101 23.638 164.726 22.9139C163.367 22.1741 162.295 21.1588 161.512 19.8681C160.744 18.5773 160.36 17.1213 160.36 15.5C160.36 13.8787 160.752 12.4227 161.536 11.1319C162.319 9.8412 163.391 8.8338 164.75 8.10972C166.125 7.36991 167.66 7 169.355 7C170.731 7 171.986 7.23611 173.122 7.70833C174.257 8.18056 175.216 8.86528 176 9.7625L173.985 11.6278C172.77 10.337 171.274 9.69167 169.499 9.69167C168.348 9.69167 167.317 9.94352 166.405 10.4472C165.494 10.9352 164.782 11.6199 164.27 12.5014C163.758 13.3829 163.503 14.3824 163.503 15.5C163.503 16.6176 163.758 17.6171 164.27 18.4986C164.782 19.3801 165.494 20.0727 166.405 20.5764C167.317 21.0644 168.348 21.3083 169.499 21.3083C171.274 21.3083 172.77 20.6551 173.985 19.3486L176 21.2375C175.216 22.1347 174.249 22.8194 173.098 23.2917C171.962 23.7639 170.707 24 169.332 24Z" fill="#6E64A6"/>
<path d="M117.372 23.7639L117.348 12.8083L111.831 21.875H110.439L104.922 12.95V23.7639H101.948V7.23611H104.514L111.183 18.1917L117.731 7.23611H120.298L120.322 23.7639H117.372Z" fill="#6E64A6"/>
</svg>
