<svg width="20" height="22" viewBox="0 0 20 22" fill="none" xmlns="http://www.w3.org/2000/svg">
<path d="M1.34 16C0.91727 15.269 0.588664 14.4875 0.362 13.674C0.855307 13.4231 1.26959 13.0406 1.55903 12.5689C1.84846 12.0972 2.00176 11.5546 2.00197 11.0011C2.00218 10.4477 1.84928 9.90495 1.5602 9.433C1.27112 8.96105 0.857119 8.57827 0.364 8.327C0.816036 6.69248 1.67673 5.19995 2.865 3.99C3.32909 4.29172 3.86762 4.45916 4.42098 4.47378C4.97434 4.4884 5.52095 4.34963 6.00033 4.07283C6.47971 3.79603 6.87315 3.392 7.13713 2.90544C7.4011 2.41888 7.52531 1.86877 7.496 1.316C9.13811 0.891621 10.8612 0.892309 12.503 1.318C12.474 1.87076 12.5984 2.42079 12.8626 2.90721C13.1268 3.39363 13.5204 3.79747 13.9998 4.07406C14.4793 4.35064 15.0259 4.48919 15.5793 4.47435C16.1326 4.45951 16.671 4.29188 17.135 3.99C17.714 4.58 18.228 5.251 18.66 6C19.093 6.749 19.417 7.53 19.638 8.326C19.1447 8.5769 18.7304 8.95937 18.441 9.4311C18.1515 9.90284 17.9982 10.4454 17.998 10.9989C17.9978 11.5523 18.1507 12.095 18.4398 12.567C18.7289 13.0389 19.1429 13.4217 19.636 13.673C19.184 15.3075 18.3233 16.8 17.135 18.01C16.6709 17.7083 16.1324 17.5408 15.579 17.5262C15.0257 17.5116 14.479 17.6504 13.9997 17.9272C13.5203 18.204 13.1268 18.608 12.8629 19.0946C12.5989 19.5811 12.4747 20.1312 12.504 20.684C10.8619 21.1084 9.13877 21.1077 7.497 20.682C7.52605 20.1292 7.4016 19.5792 7.13742 19.0928C6.87324 18.6064 6.47964 18.2025 6.00017 17.9259C5.5207 17.6494 4.97405 17.5108 4.42073 17.5256C3.8674 17.5405 3.32896 17.7081 2.865 18.01C2.27399 17.4069 1.76159 16.7316 1.34 16ZM7 16.196C8.06563 16.8106 8.86685 17.797 9.25 18.966C9.749 19.013 10.25 19.014 10.749 18.967C11.1324 17.7978 11.934 16.8114 13 16.197C14.0652 15.5807 15.3205 15.3795 16.525 15.632C16.815 15.224 17.065 14.789 17.273 14.334C16.4524 13.4174 15.9991 12.2302 16 11C16 9.74 16.47 8.563 17.273 7.666C17.0635 7.21115 16.8125 6.77663 16.523 6.368C15.3193 6.62031 14.0648 6.41948 13 5.804C11.9344 5.18937 11.1332 4.20298 10.75 3.034C10.251 2.987 9.75 2.986 9.251 3.033C8.8676 4.20215 8.066 5.18856 7 5.803C5.93478 6.41931 4.67948 6.62052 3.475 6.368C3.18556 6.77628 2.93513 7.21086 2.727 7.666C3.54757 8.58256 4.00088 9.76979 4 11C4 12.26 3.53 13.437 2.727 14.334C2.93647 14.7888 3.18754 15.2234 3.477 15.632C4.68072 15.3797 5.93521 15.5805 7 16.196ZM10 14C9.20435 14 8.44129 13.6839 7.87868 13.1213C7.31607 12.5587 7 11.7956 7 11C7 10.2043 7.31607 9.44129 7.87868 8.87868C8.44129 8.31607 9.20435 8 10 8C10.7956 8 11.5587 8.31607 12.1213 8.87868C12.6839 9.44129 13 10.2043 13 11C13 11.7956 12.6839 12.5587 12.1213 13.1213C11.5587 13.6839 10.7956 14 10 14ZM10 12C10.2652 12 10.5196 11.8946 10.7071 11.7071C10.8946 11.5196 11 11.2652 11 11C11 10.7348 10.8946 10.4804 10.7071 10.2929C10.5196 10.1054 10.2652 10 10 10C9.73478 10 9.48043 10.1054 9.29289 10.2929C9.10536 10.4804 9 10.7348 9 11C9 11.2652 9.10536 11.5196 9.29289 11.7071C9.48043 11.8946 9.73478 12 10 12Z" fill="black"/>
</svg>
