<svg width="154" height="148" viewBox="0 0 154 148" fill="none" xmlns="http://www.w3.org/2000/svg">
<path d="M77.5351 91.8773C77.0567 92.1427 76.5152 92.3032 75.9551 92.3291L57.9073 93.1666C52.7849 93.4022 48.3785 92.9218 44.4314 91.7039C35.795 89.0427 28.5476 83.4965 24.0292 76.0789L9.14784 51.6705C7.42974 48.8538 7.8149 45.2562 10.0957 42.7163L30.5294 20.0299C31.7353 18.6705 33.423 17.7244 35.2673 17.3672L65.8509 11.3602C69.2718 10.6834 72.7265 12.1263 74.4385 14.9415L89.3307 39.3681C93.8465 46.7727 95.3391 55.5505 93.5377 64.0853C92.7106 68.0004 90.9871 71.9255 88.2743 76.0856L78.7137 90.7744C78.4185 91.2326 78.0114 91.6082 77.5351 91.8773Z" fill="url(#paint0_linear)"/>
<g filter="url(#filter0_f)">
<path d="M69.5537 77.3342C69.2292 77.5142 68.8674 77.6321 68.4986 77.6681L56.6145 78.8281C53.2415 79.156 50.3665 79.0189 47.8217 78.4128C42.2535 77.0889 37.7092 73.9448 35.0295 69.5545L26.2032 55.1084C25.1841 53.4414 25.5765 51.2199 27.1727 49.5796L41.4705 34.926C42.3151 34.0486 43.46 33.4076 44.685 33.1224L65.0016 28.3413C67.2742 27.8035 69.4869 28.5653 70.5021 30.2316L79.3348 44.6885C82.0133 49.0708 82.6533 54.4041 81.1395 59.7062C80.4446 62.1384 79.1607 64.6088 77.218 67.2589L70.3704 76.6152C70.1588 76.907 69.8769 77.152 69.5537 77.3342Z" fill="#36BCD2" fill-opacity="0.5"/>
</g>
<g filter="url(#filter1_b)">
<mask id="path-3-outside-1" maskUnits="userSpaceOnUse" x="35.8291" y="13.3404" width="120.951" height="130.112" fill="black">
<rect fill="white" x="35.8291" y="13.3404" width="120.951" height="130.112"/>
<path d="M87.0799 134.852C86.3581 134.748 85.6628 134.483 85.0653 134.062L65.8103 120.495C60.3471 116.642 56.241 112.609 53.2473 108.168C46.6938 98.4548 44.0729 86.8188 45.8796 75.3989L51.8115 37.8101C52.4953 33.4717 56.0166 29.9958 60.5649 29.15L101.254 21.6442C103.673 21.1796 106.228 21.5355 108.431 22.6363L145.047 40.8013C149.147 42.8279 151.439 47.1114 150.751 51.4433L144.814 89.0599C143.016 100.464 136.921 110.892 127.656 118.428C123.405 121.884 118.225 124.633 111.826 126.838L89.248 134.635C88.5468 134.881 87.8026 134.95 87.0799 134.852Z"/>
</mask>
<path d="M87.0799 134.852C86.3581 134.748 85.6628 134.483 85.0653 134.062L65.8103 120.495C60.3471 116.642 56.241 112.609 53.2473 108.168C46.6938 98.4548 44.0729 86.8188 45.8796 75.3989L51.8115 37.8101C52.4953 33.4717 56.0166 29.9958 60.5649 29.15L101.254 21.6442C103.673 21.1796 106.228 21.5355 108.431 22.6363L145.047 40.8013C149.147 42.8279 151.439 47.1114 150.751 51.4433L144.814 89.0599C143.016 100.464 136.921 110.892 127.656 118.428C123.405 121.884 118.225 124.633 111.826 126.838L89.248 134.635C88.5468 134.881 87.8026 134.95 87.0799 134.852Z" fill="#3ED6EF" fill-opacity="0.35"/>
<path d="M86.9175 135.839C87.4642 135.917 87.9801 135.539 88.0698 134.994C88.1594 134.449 87.7889 133.944 87.2422 133.865L86.9175 135.839ZM85.0653 134.062L85.6559 133.245L85.6559 133.245L85.0653 134.062ZM65.8103 120.495L65.2194 121.312L65.2197 121.312L65.8103 120.495ZM53.2473 108.168L54.084 107.602L54.0838 107.602L53.2473 108.168ZM45.8796 75.3989L46.8705 75.5352L46.8705 75.5348L45.8796 75.3989ZM51.8115 37.8101L52.8025 37.946L52.8025 37.9458L51.8115 37.8101ZM60.5649 29.15L60.4003 28.1698L60.3989 28.1701L60.5649 29.15ZM101.254 21.6442L101.418 22.6244L101.426 22.6229L101.254 21.6442ZM108.431 22.6363L107.967 23.5289L107.969 23.53L108.431 22.6363ZM145.047 40.8013L144.585 41.6951L144.586 41.6957L145.047 40.8013ZM150.751 51.4433L149.76 51.3064L149.76 51.3075L150.751 51.4433ZM144.814 89.0599L143.823 88.9241L143.823 88.9242L144.814 89.0599ZM127.656 118.428L128.282 119.195L128.282 119.195L127.656 118.428ZM111.826 126.838L111.514 125.896L111.513 125.897L111.826 126.838ZM89.248 134.635L88.9352 133.694L88.9308 133.696L89.248 134.635ZM87.2346 133.864C86.6872 133.79 86.1742 134.172 86.0888 134.717C86.0033 135.263 86.3778 135.765 86.9252 135.84L87.2346 133.864ZM87.2422 133.865C86.6666 133.782 86.1197 133.572 85.6559 133.245L84.4746 134.879C85.2058 135.395 86.0496 135.714 86.9175 135.839L87.2422 133.865ZM85.6559 133.245L66.4009 119.678L65.2197 121.312L84.4747 134.879L85.6559 133.245ZM66.4012 119.678C61.0122 115.877 56.998 111.925 54.084 107.602L52.4106 108.734C55.484 113.293 59.682 117.406 65.2194 121.312L66.4012 119.678ZM54.0838 107.602C47.6648 98.0879 45.1039 86.7014 46.8705 75.5352L44.8888 75.2627C43.0419 86.9362 45.7229 98.8218 52.4108 108.734L54.0838 107.602ZM46.8705 75.5348L52.8025 37.946L50.8206 37.6743L44.8887 75.2631L46.8705 75.5348ZM52.8025 37.9458C53.4148 34.0606 56.5794 30.9019 60.7309 30.1298L60.3989 28.1701C55.4538 29.0897 51.5757 32.8829 50.8206 37.6745L52.8025 37.9458ZM60.7294 30.1301L101.418 22.6243L101.089 20.664L60.4003 28.1698L60.7294 30.1301ZM101.426 22.6229C103.624 22.2009 105.955 22.5238 107.967 23.5289L108.895 21.7437C106.5 20.5472 103.722 20.1584 101.082 20.6654L101.426 22.6229ZM107.969 23.53L144.585 41.6951L145.509 39.9075L108.893 21.7425L107.969 23.53ZM144.586 41.6957C148.327 43.5446 150.377 47.4269 149.76 51.3064L151.742 51.5803C152.502 46.7958 149.967 42.1112 145.507 39.9069L144.586 41.6957ZM149.76 51.3075L143.823 88.9241L145.805 89.1958L151.742 51.5792L149.76 51.3075ZM143.823 88.9242C142.065 100.075 136.105 110.281 127.03 117.661L128.282 119.195C137.738 111.504 143.967 100.853 145.805 89.1956L143.823 88.9242ZM127.03 117.661C122.892 121.025 117.826 123.722 111.514 125.896L112.138 127.779C118.625 125.545 123.918 122.743 128.282 119.195L127.03 117.661ZM111.513 125.897L88.9352 133.694L89.5608 135.576L112.139 127.779L111.513 125.897ZM88.9308 133.696C88.387 133.886 87.8049 133.941 87.2346 133.864L86.9252 135.84C87.8003 135.959 88.7066 135.876 89.5652 135.575L88.9308 133.696Z" fill="url(#paint1_linear)" mask="url(#path-3-outside-1)"/>
</g>
<g filter="url(#filter2_bd)">
<path d="M89.7403 90.7997C88.6104 90.6429 87.5463 90.0857 86.8096 89.1485L77.3338 77.0825C75.8722 75.2098 76.2882 72.571 78.2683 71.1819C80.2493 69.7872 83.0451 70.1721 84.5135 72.04L91.3324 80.718L114.099 64.714C116.086 63.3201 118.882 63.7051 120.345 65.5721C121.812 67.4456 121.395 70.09 119.416 71.4735L93.0549 90.0067C92.061 90.7064 90.8702 90.9565 89.7403 90.7997Z" fill="url(#paint2_linear)"/>
<path d="M78.3252 71.2629L78.325 71.263C76.3926 72.6187 75.9865 75.1921 77.4135 77.0204L86.8891 89.0862C87.609 90.002 88.6494 90.5474 89.756 90.7009C90.8623 90.8544 92.0267 90.6095 92.998 89.9257L92.998 89.9257L119.359 71.3925L119.359 71.3924C121.291 70.0423 121.698 67.4635 120.265 65.6343C118.835 63.8089 116.099 63.432 114.156 64.795L78.3252 71.2629ZM78.3252 71.2629C80.2622 69.8992 82.9981 70.2757 84.434 72.1023C84.434 72.1024 84.434 72.1024 84.434 72.1024L91.2529 80.7803L91.3109 80.8541L91.3893 80.799L114.156 64.795L78.3252 71.2629Z" stroke="url(#paint3_linear)" stroke-opacity="0.5" stroke-width="0.2"/>
</g>
<defs>
<filter id="filter0_f" x="9.6416" y="12.1707" width="88.3013" height="82.8306" filterUnits="userSpaceOnUse" color-interpolation-filters="sRGB">
<feFlood flood-opacity="0" result="BackgroundImageFix"/>
<feBlend mode="normal" in="SourceGraphic" in2="BackgroundImageFix" result="shape"/>
<feGaussianBlur stdDeviation="8" result="effect1_foregroundBlur"/>
</filter>
<filter id="filter1_b" x="20.3193" y="-3.55176" width="155.556" height="163.444" filterUnits="userSpaceOnUse" color-interpolation-filters="sRGB">
<feFlood flood-opacity="0" result="BackgroundImageFix"/>
<feGaussianBlur in="BackgroundImage" stdDeviation="12"/>
<feComposite in2="SourceAlpha" operator="in" result="effect1_backgroundBlur"/>
<feBlend mode="normal" in="SourceGraphic" in2="effect1_backgroundBlur" result="shape"/>
</filter>
<filter id="filter2_bd" x="61.4609" y="48.876" width="74.7607" height="56.9687" filterUnits="userSpaceOnUse" color-interpolation-filters="sRGB">
<feFlood flood-opacity="0" result="BackgroundImageFix"/>
<feGaussianBlur in="BackgroundImage" stdDeviation="7.5"/>
<feComposite in2="SourceAlpha" operator="in" result="effect1_backgroundBlur"/>
<feColorMatrix in="SourceAlpha" type="matrix" values="0 0 0 0 0 0 0 0 0 0 0 0 0 0 0 0 0 0 127 0"/>
<feOffset dx="5" dy="5"/>
<feGaussianBlur stdDeviation="5"/>
<feColorMatrix type="matrix" values="0 0 0 0 0.242188 0 0 0 0 0.839912 0 0 0 0 0.9375 0 0 0 0.5 0"/>
<feBlend mode="normal" in2="effect1_backgroundBlur" result="effect2_dropShadow"/>
<feBlend mode="normal" in="SourceGraphic" in2="effect2_dropShadow" result="shape"/>
</filter>
<linearGradient id="paint0_linear" x1="65.681" y1="8.21419e-05" x2="44.1566" y2="83.5497" gradientUnits="userSpaceOnUse">
<stop stop-color="#ACF1FD" stop-opacity="0.5"/>
<stop offset="1" stop-color="#33BFD6"/>
</linearGradient>
<linearGradient id="paint1_linear" x1="69.2557" y1="29.9236" x2="130.17" y2="120.042" gradientUnits="userSpaceOnUse">
<stop stop-color="white" stop-opacity="0.25"/>
<stop offset="1" stop-color="white" stop-opacity="0"/>
</linearGradient>
<linearGradient id="paint2_linear" x1="117.926" y1="69.5657" x2="70.0682" y2="63.9456" gradientUnits="userSpaceOnUse">
<stop stop-color="white"/>
<stop offset="1" stop-color="white" stop-opacity="0.2"/>
</linearGradient>
<linearGradient id="paint3_linear" x1="82.0131" y1="69.181" x2="118.172" y2="75.4192" gradientUnits="userSpaceOnUse">
<stop stop-color="white"/>
<stop offset="1" stop-color="white" stop-opacity="0"/>
</linearGradient>
</defs>
</svg>
