<svg width="356" height="246" viewBox="0 0 356 246" fill="none" xmlns="http://www.w3.org/2000/svg">
<g filter="url(#filter0_d)">
<path d="M220.382 14H330.939C333.342 14.0015 335.646 14.9578 337.344 16.6588C339.043 18.3599 339.999 20.6666 340 23.0723V176.145C339.999 178.551 339.043 180.858 337.344 182.559C335.646 184.26 333.342 185.216 330.939 185.218H220.382C217.981 185.219 215.678 184.267 213.977 182.571C212.277 180.874 211.317 178.572 211.31 176.168V23.0947C211.308 21.9007 211.541 20.718 211.996 19.6143C212.451 18.5106 213.119 17.5076 213.961 16.6628C214.804 15.818 215.805 15.1479 216.907 14.691C218.009 14.2341 219.19 13.9993 220.382 14Z" fill="white"/>
</g>
<path d="M275.66 116.788C298.514 116.788 317.04 98.5146 317.04 75.9742C317.04 53.4337 298.514 35.1658 275.66 35.1658C252.807 35.1658 234.27 53.4337 234.27 75.9742C234.27 98.5146 252.807 116.788 275.66 116.788Z" stroke="#FAFBFC" stroke-width="8"/>
<path d="M268.766 53.5345C266.498 54.4265 264.373 55.635 262.507 57.1601C259.118 57.2464 260.209 54.4841 260.209 54.4841C262.449 52.6713 265.005 51.2038 267.761 50.168C267.761 50.1392 270.058 50.8586 268.766 53.5345Z" fill="#6E64A6"/>
<path d="M258.802 60.8431C256.046 64.2672 254.208 68.4395 253.691 73.0146C251.94 75.2877 250.217 73.1009 250.16 73.0146C250.734 67.5475 252.887 62.5696 256.161 58.5412C256.132 58.5412 258.544 57.9657 258.802 60.8431Z" fill="#6E64A6"/>
<path d="M304.629 75.8632C304.629 91.0271 292.397 103.314 277.294 103.314C265.263 103.314 255.041 95.4871 251.394 84.6393C251.423 84.5529 251.94 81.6755 254.783 83.6897C257.998 93.0701 266.871 99.7744 277.294 99.7744C286.138 99.7744 293.833 94.9404 297.939 87.7756C298.054 87.603 298.14 87.4016 298.255 87.2289C297.767 85.1572 295.699 85.0997 294.637 85.2147C294.264 85.2435 294.034 85.3011 294.034 85.3011L294.436 85.56C291.077 91.6026 284.645 95.6597 277.265 95.6597C272.269 95.6597 267.704 93.7894 264.229 90.7106C264.229 90.5955 264.229 90.4804 264.229 90.3653C264.229 90.3365 264.229 90.279 264.229 90.2502C264.229 90.1927 264.229 90.1639 264.229 90.1063C264.229 90.0488 264.258 89.9912 264.258 89.9337C264.258 89.8761 264.287 89.8186 264.287 89.7898C264.287 89.761 264.287 89.761 264.287 89.7323C264.287 89.7035 264.315 89.6747 264.315 89.6172C264.315 89.5596 264.344 89.5309 264.344 89.4733C264.344 89.4445 264.344 89.4445 264.373 89.4158V89.387V89.3582C264.373 89.3582 264.373 89.3582 264.373 89.3294C264.373 89.3007 264.402 89.2719 264.402 89.2431V89.2143C264.402 89.1856 264.402 89.1856 264.43 89.1568C264.43 89.128 264.43 89.128 264.459 89.0992C264.459 89.0705 264.488 89.0417 264.488 89.0417C264.488 89.0129 264.488 89.0129 264.516 89.0129C264.545 88.9841 264.545 88.9554 264.574 88.8978C264.574 88.8691 264.603 88.8403 264.631 88.8403C264.631 88.8115 264.66 88.8115 264.66 88.8115C264.717 88.7252 264.775 88.6676 264.832 88.5813L264.861 88.5525L264.89 88.5238C264.947 88.495 264.976 88.4374 265.033 88.4087C265.091 88.3799 265.148 88.3511 265.177 88.3223C265.234 88.2936 265.263 88.2648 265.32 88.2648C265.349 88.236 265.407 88.236 265.464 88.2072C265.493 88.2072 265.521 88.1785 265.55 88.1785C265.579 88.1785 265.608 88.1785 265.636 88.1497C265.694 88.1497 265.722 88.1497 265.78 88.1209C265.809 88.1209 265.837 88.1209 265.866 88.1209C265.952 88.1209 266.038 88.1209 266.124 88.1209H266.153C266.182 88.1209 266.211 88.1209 266.239 88.1209C266.268 88.1209 266.268 88.1209 266.268 88.1209C266.325 88.1209 266.354 88.1497 266.383 88.1497C266.412 88.1497 266.412 88.1497 266.412 88.1497C266.412 88.1497 266.412 88.1497 266.44 88.1497H266.469C269.312 90.653 273.044 92.1781 277.15 92.1781C286.109 92.1781 293.374 84.8695 293.374 75.892C293.374 66.8857 286.109 59.6059 277.15 59.6059C268.192 59.6059 260.927 66.9145 260.927 75.892C260.927 78.3378 261.473 80.6684 262.42 82.769C262.42 82.769 262.42 82.769 262.42 82.7977C262.42 82.7977 262.42 82.7977 262.42 82.8265C262.42 82.8553 262.42 82.8841 262.392 82.9128C262.392 82.9416 262.392 82.9704 262.363 83.0279C262.363 83.0567 262.334 83.0855 262.334 83.143C262.306 83.2293 262.277 83.3444 262.248 83.4595C262.248 83.4883 262.219 83.4883 262.219 83.5171C262.219 83.5459 262.191 83.5746 262.191 83.6034C262.191 83.6322 262.162 83.6609 262.162 83.6897C262.133 83.7473 262.105 83.776 262.076 83.8336C262.076 83.8624 262.047 83.8624 262.047 83.8911C262.047 83.9199 262.018 83.9199 262.018 83.9487C261.99 83.9775 261.99 84.0062 261.961 84.035C261.932 84.0638 261.932 84.0926 261.904 84.1213C261.875 84.1501 261.846 84.1789 261.846 84.2077C261.846 84.2077 261.846 84.2077 261.846 84.2364C261.817 84.2652 261.817 84.2652 261.789 84.294C261.731 84.3515 261.674 84.3803 261.616 84.4378C261.588 84.4666 261.559 84.4666 261.53 84.4954C261.502 84.5242 261.473 84.5242 261.444 84.5529L261.415 84.5817C261.387 84.5817 261.387 84.6105 261.358 84.6105C261.329 84.6393 261.301 84.6393 261.243 84.6393C261.157 84.668 261.1 84.6968 261.013 84.6968C260.841 84.7256 260.669 84.7256 260.439 84.6968C260.382 84.6968 260.324 84.668 260.267 84.668C260.209 84.668 260.152 84.6393 260.095 84.6393C260.037 84.6105 259.98 84.6105 259.922 84.5817C259.865 84.5529 259.836 84.5529 259.779 84.5242C259.721 84.4954 259.693 84.4954 259.635 84.4666C259.549 84.4091 259.434 84.3803 259.319 84.3228C258.142 81.7906 257.482 78.942 257.482 75.9783C257.482 65.0729 266.297 56.2105 277.179 56.2105C287.057 56.2105 295.211 63.4903 296.647 73.0146L296.302 73.0721C296.331 73.1009 296.475 73.2447 296.704 73.4462C297.566 74.108 299.518 75.2014 300.811 72.9858C300.897 72.8419 300.983 72.6405 301.069 72.4678L300.724 72.4966C299.231 62.1955 291.163 53.9949 280.941 52.3836C278.328 49.8802 281.228 48.8444 281.228 48.8444C294.522 50.6859 304.629 62.1092 304.629 75.8632Z" fill="#6E64A6"/>
<path d="M279.562 64.0658L268.996 78.0788L274.337 77.417L273.303 87.2289C268.651 85.56 265.321 81.1288 265.321 75.8919C265.321 69.2451 270.69 63.8644 277.294 63.8644C277.524 63.8644 277.754 63.8644 277.983 63.8932L278.012 63.8644C278.529 63.404 280.998 62.1379 280.998 62.1379L279.562 64.0658Z" fill="#32C2D9"/>
<path d="M289.296 75.8632C289.296 82.51 283.927 87.8907 277.323 87.8907C277.064 87.8907 276.835 87.8907 276.576 87.8619C275.342 88.4374 273.533 89.3582 273.533 89.3582L274.997 87.6605L285.477 75.6042L279.878 76.1797L280.969 64.4111C285.822 65.9937 289.296 70.5112 289.296 75.8632Z" fill="#32C2D9"/>
<path d="M245.991 135.534H305.66C307.089 135.534 308.459 136.102 309.469 137.113C310.479 138.125 311.047 139.497 311.047 140.927C311.047 142.358 310.479 143.73 309.469 144.741C308.459 145.753 307.089 146.321 305.66 146.321H245.991C244.562 146.321 243.192 145.753 242.181 144.741C241.171 143.73 240.604 142.358 240.604 140.927C240.604 139.497 241.171 138.125 242.181 137.113C243.192 136.102 244.562 135.534 245.991 135.534Z" fill="#F3F3F3"/>
<path d="M236.646 153.521H315.003C316.431 153.521 317.802 154.089 318.812 155.101C319.822 156.112 320.39 157.484 320.39 158.915C320.39 160.345 319.822 161.717 318.812 162.729C317.802 163.74 316.431 164.309 315.003 164.309H236.646C235.217 164.309 233.847 163.74 232.837 162.729C231.826 161.717 231.259 160.345 231.259 158.915C231.259 157.484 231.826 156.112 232.837 155.101C233.847 154.089 235.217 153.521 236.646 153.521Z" fill="#F3F3F3"/>
<mask id="mask0" mask-type="alpha" maskUnits="userSpaceOnUse" x="9" y="54" width="248" height="170">
<path fill-rule="evenodd" clip-rule="evenodd" d="M147.314 56.8942C181.077 62.4278 228.075 45.8609 248.242 73.4893C268.739 101.568 243.901 127.151 241.843 135.357C233.88 167.114 225.73 183.036 198.098 200.608C171.988 217.213 142.53 225.518 111.687 223.101C77.0043 220.384 37.0405 215.756 18.2096 186.515C-0.361042 157.679 17.3758 121.277 24.5012 87.718C31.222 56.065 26.0525 93.8087 51.2768 73.5294C77.6013 52.3656 113.989 51.4324 147.314 56.8942Z" fill="#C4C4C4"/>
</mask>
<g mask="url(#mask0)">
<path d="M96.717 102.594C96.717 94.7571 105.371 97.2552 106.844 97.7462C108.317 98.2371 111.754 86.9451 111.754 86.9451C111.754 86.9451 129.429 85.4722 132.865 88.9089C132.865 88.9089 133.847 103.638 133.356 112.966C132.865 122.294 129.868 126.213 126.431 126.213C125.344 126.152 124.276 125.902 123.275 125.476V142.648L102.486 131.873L105.046 111.587C104.941 111.526 104.88 111.493 104.88 111.493C104.88 111.493 96.717 109.995 96.717 102.594Z" fill="#FFB7B6"/>
<path d="M133.427 101.678C133.427 101.678 132.469 93.6155 132.347 91.3835C132.171 88.1726 129.181 87.4989 127.422 89.7509C124.894 93.095 120.602 94.5902 116.543 93.5412C112.981 92.7117 111.482 91.7593 111.155 95.3537C110.829 98.9481 109.604 104.917 108.461 103.32C107.318 101.724 106.039 98.2134 103.775 97.8052C100.315 97.1815 98.1754 101.312 98.9918 103.776C99.8081 106.24 100.962 107.777 105.233 110.107L103.901 120.66C93.3185 106.628 89.3319 87.3563 103.686 82.8937C109.048 81.2266 114.619 70.4224 124.995 72.8802C132.347 74.6217 132.347 80.2543 132.869 85.1522C142.747 85.5604 133.427 101.678 133.427 101.678Z" fill="#352316"/>
<path d="M122.341 101.675C121.834 101.675 121.423 100.999 121.423 100.165C121.423 99.3311 121.834 98.6552 122.341 98.6552C122.849 98.6552 123.26 99.3311 123.26 100.165C123.26 100.999 122.849 101.675 122.341 101.675Z" fill="#161B36"/>
<path d="M131.428 102.303C130.92 102.303 130.509 101.627 130.509 100.793C130.509 99.9596 130.92 99.2837 131.428 99.2837C131.935 99.2837 132.346 99.9596 132.346 100.793C132.346 101.627 131.935 102.303 131.428 102.303Z" fill="#161B36"/>
<path d="M124.24 94.1257C123.913 93.7584 123.464 93.4728 122.117 93.5544C120.77 93.636 118.729 94.901 119.178 95.2274C119.627 95.5539 120.974 94.4521 122.035 94.8194C123.097 95.1866 123.706 95.4887 124.063 95.2887C124.512 95.037 124.397 94.3022 124.24 94.1257Z" fill="#161B36"/>
<path d="M130.076 93.751C130.503 93.5088 131.021 93.3834 132.269 93.8955C133.518 94.4075 135.041 96.2635 134.511 96.4275C133.98 96.5916 133.061 95.114 131.938 95.1191C130.815 95.1241 130.141 95.2133 129.867 94.9089C129.524 94.5257 129.87 93.8674 130.076 93.751Z" fill="#161B36"/>
<g style="mix-blend-mode:overlay" opacity="0.6">
<g style="mix-blend-mode:overlay" opacity="0.6">
<path d="M128.083 110.354C128.557 110.371 129.027 110.262 129.445 110.038C129.718 109.885 129.909 109.617 129.964 109.308C130.066 108.668 129.412 107.677 128.611 106.543C128.407 106.273 128.221 105.99 128.053 105.696C127.89 105.347 127.936 102.168 128.076 99.2966L127.585 99.2728C127.537 100.269 127.311 105.269 127.608 105.904C127.787 106.225 127.988 106.534 128.21 106.827C128.714 107.541 129.558 108.736 129.48 109.23C129.447 109.398 129.339 109.541 129.188 109.619C128.482 109.922 127.689 109.947 126.966 109.688L126.816 110.156C127.226 110.286 127.653 110.353 128.083 110.354Z" fill="#030F1C"/>
</g>
</g>
<path d="M128.679 115.025C128.72 114.88 128.702 114.725 128.629 114.593C128.555 114.461 128.432 114.364 128.287 114.324C127.565 114.115 126.233 113.722 125.219 113.376C124.161 112.957 123.133 112.468 122.14 111.912C121.967 111.818 121.758 111.82 121.587 111.917C121.415 112.014 121.306 112.192 121.297 112.389C121.228 113.9 121.41 116.851 123.787 117.453C126.677 118.184 128.19 116.621 128.679 115.025Z" fill="#161B36"/>
<path d="M127.422 116.908C127.422 116.908 124.935 113.435 121.383 114.229C121.383 114.229 121.377 116.941 123.667 117.552C126.133 118.21 127.422 116.908 127.422 116.908Z" fill="#E55151"/>
<path d="M102.135 100.919C104.489 100.124 106.675 105.246 106.767 105.464C106.819 105.589 106.761 105.733 106.636 105.785C106.511 105.838 106.367 105.779 106.314 105.654C105.934 104.77 105.468 103.925 104.925 103.131C104.428 103.044 103.917 103.138 103.484 103.394C103.054 103.714 102.779 104.201 102.728 104.735C102.708 104.853 102.606 104.94 102.486 104.94C102.472 104.94 102.459 104.939 102.446 104.937C102.381 104.926 102.324 104.891 102.286 104.838C102.248 104.785 102.233 104.719 102.243 104.655C102.329 103.467 103.344 102.562 104.535 102.613C103.835 101.747 103.038 101.131 102.292 101.384C102.209 101.413 102.117 101.394 102.051 101.336C101.986 101.279 101.955 101.19 101.973 101.104C101.99 101.018 102.051 100.948 102.135 100.919H102.135Z" fill="#0B122D"/>
<path d="M123.275 125.722C123.391 125.722 123.491 125.641 123.515 125.528C123.539 125.414 123.481 125.299 123.375 125.252C123.294 125.216 115.227 121.608 111.823 117.246C111.739 117.14 111.585 117.121 111.478 117.204C111.372 117.287 111.353 117.441 111.436 117.548C114.916 122.007 122.84 125.553 123.176 125.701C123.207 125.715 123.241 125.722 123.275 125.722Z" fill="#0B122D"/>
<path d="M111.772 91.0968C111.826 91.0968 111.879 91.0787 111.922 91.0452C115.627 88.1684 114.248 82.5918 114.188 82.3559C114.154 82.2252 114.02 82.1465 113.889 82.1801C113.758 82.2136 113.679 82.3466 113.712 82.4777C113.726 82.5323 115.07 87.9794 111.621 90.6573C111.538 90.7217 111.505 90.8316 111.539 90.9309C111.573 91.0302 111.667 91.0968 111.772 91.0968Z" fill="white"/>
<g style="mix-blend-mode:overlay" opacity="0.6">
<path d="M123.259 125.589C123.259 125.589 116.184 122.298 113.898 119.904C113.898 119.904 114.426 126.359 119.098 130.896C123.771 135.434 123.259 131.767 123.259 131.767L123.259 125.589Z" fill="#030F1C"/>
</g>
<path d="M38.9972 195.335C36.2217 188.693 36.0557 181.76 38.8133 178.552C44.9214 171.445 59.9088 155.771 67.9771 149.033C73.6526 144.293 78.4721 141.115 82.5638 139.539C82.9429 139.321 83.3409 139.136 83.7531 138.989C88.1069 137.465 101.495 134.636 101.495 134.636L118.334 142.209L127.4 135.942C127.4 135.942 143.835 143.016 146.447 146.499C146.462 146.519 146.475 146.545 146.489 146.567C152.095 151.232 157.188 158.795 161.224 166.036C164.345 171.691 167.136 177.523 169.584 183.501C169.776 183.972 170.198 184.31 170.7 184.394C171.201 184.479 171.711 184.299 172.047 183.917L186.693 168.298C185.984 167.726 185.833 166.706 186.346 165.954L188.761 162.422C189.308 161.623 191.47 161.527 192.269 162.074L203.898 170.101C204.697 170.648 204.792 173.038 204.245 173.838L202.248 176.829C201.712 177.612 200.649 177.825 199.853 177.309C186.808 200.7 181.596 211.035 175.148 212.537C171.731 213.333 168.334 211.796 163.993 208.744C156.541 203.516 150.005 197.09 144.651 189.728C144.255 194.688 143.967 198.942 143.944 201.683C143.879 209.33 144.654 218.177 144.869 228.132C144.971 232.845 149.44 242.11 145.794 245.111C134.027 254.798 76.4605 245.111 76.4605 245.111C76.5525 239.46 77.2827 233.837 78.6374 228.349C81.4121 217.806 81.032 212.458 80.7055 206.254C80.5303 202.926 79.9479 187.631 79.412 173.628C71.1436 179.568 59.1351 188.033 57.9948 189.211C57.04 190.202 57.9279 193.193 60.8559 202.042C61.0636 202.67 61.7048 204.599 62.0609 205.667L62.0654 205.665C62.9634 205.303 63.9847 205.738 64.3468 206.636L65.9468 210.605C66.3089 211.503 65.1895 213.354 64.2916 213.716L51.1632 218.943C50.2652 219.305 48.2232 218.058 47.8612 217.16L46.4788 213.839C46.2347 213.229 46.3533 212.534 46.7858 212.04L46.7724 212.036C43.5749 205.653 41.1191 200.414 38.9972 195.335Z" fill="#91E8F6"/>
<g style="mix-blend-mode:overlay" opacity="0.6">
<path d="M146.501 167.188C146.732 167.402 146.965 167.624 147.201 167.862C153.238 173.937 150.592 183.79 151.351 188.599C152.11 193.408 165.936 199.534 163.993 208.744C156.541 203.516 150.005 197.09 144.651 189.728C145.2 182.855 145.955 174.629 146.501 167.188Z" fill="#030F1C"/>
</g>
<path d="M172.975 193.267C173.074 193.267 173.163 193.208 173.201 193.117C173.24 193.027 173.22 192.922 173.152 192.851C170.263 189.872 170.698 185.777 170.703 185.735C170.711 185.671 170.692 185.606 170.652 185.555C170.611 185.504 170.552 185.471 170.487 185.464C170.423 185.455 170.357 185.473 170.305 185.513C170.254 185.554 170.221 185.614 170.215 185.679C170.194 185.855 169.744 190.043 172.799 193.192C172.845 193.24 172.909 193.267 172.975 193.267Z" fill="#0B122D"/>
<g style="mix-blend-mode:overlay" opacity="0.6">
<path d="M199.811 177.286L186.803 168.391C186.022 167.856 195.645 170.39 198.14 174.395C199.755 176.988 201.78 175.349 202.351 174.053C203.151 172.234 201.839 168.68 201.839 168.68C201.851 168.662 203.743 170.021 203.754 170.003L203.898 170.101C204.697 170.648 204.792 173.038 204.245 173.837L202.248 176.829C201.985 177.213 201.581 177.476 201.124 177.562C200.667 177.648 200.195 177.549 199.811 177.286Z" fill="#030F1C"/>
</g>
<path d="M145.754 177.52C145.876 177.52 145.979 177.431 145.996 177.311C147.633 166.442 146.857 158.579 146.848 158.501C146.833 158.368 146.714 158.271 146.579 158.282C146.515 158.289 146.455 158.321 146.414 158.371C146.373 158.422 146.354 158.486 146.36 158.551C146.368 158.629 147.138 166.434 145.511 177.238C145.501 177.303 145.518 177.368 145.556 177.421C145.595 177.473 145.653 177.508 145.717 177.518C145.73 177.519 145.742 177.52 145.754 177.52Z" fill="#0B122D"/>
<g style="mix-blend-mode:overlay" opacity="0.6">
<path d="M79.5323 173.542C83.1697 170.928 86.064 168.817 86.9519 168.055C88.1768 167.005 89.3052 165.978 90.337 164.973C90.8362 169.682 91.2788 180.778 87.795 198.827C84.142 217.752 90.3131 230.037 97.2497 237.383C103.139 243.621 115.318 245.111 124.062 249.416C107.318 250.336 76.4605 245.111 76.4605 245.111C76.4605 245.111 76.0828 237.035 79.4091 225.195C81.9991 219.174 80.2915 186.127 79.5323 173.542Z" fill="#030F1C"/>
</g>
<g style="mix-blend-mode:overlay" opacity="0.6">
<path d="M112.035 143.692L93.4825 136.429L101.495 134.635L112.035 143.692Z" fill="#030F1C"/>
</g>
<path d="M85.0627 168.491C85.0878 168.491 85.1127 168.487 85.1365 168.48C93.2864 165.906 96.4527 155.78 96.4839 155.678C96.5102 155.594 96.4894 155.502 96.4293 155.438C96.3693 155.373 96.2791 155.346 96.1933 155.366C96.1074 155.386 96.039 155.451 96.014 155.535C95.9838 155.635 92.8894 165.517 84.9889 168.012C84.8734 168.048 84.8018 168.163 84.8202 168.283C84.8387 168.403 84.9416 168.491 85.0627 168.491H85.0627Z" fill="#0B122D"/>
<g style="mix-blend-mode:overlay" opacity="0.6">
<path d="M53.5516 190.576C53.8877 194.846 55.1741 198.986 57.3167 202.695C57.7151 203.374 59.8336 205.136 61.6967 204.578C58.1028 193.747 56.8558 190.187 57.9948 189.211C61.1195 186.534 72.7743 178.377 77.3371 175.116C76.203 174.35 73.9168 173.412 71.6044 174.566C67.7994 176.47 53.0557 185.288 53.5516 190.576Z" fill="white"/>
</g>
<path d="M51.701 193.989C51.8232 193.989 51.9267 193.898 51.9436 193.777C51.9666 193.616 52.5579 189.815 57.0404 189.578C57.1747 189.57 57.2771 189.455 57.27 189.321C57.2629 189.186 57.1489 189.083 57.0145 189.088C52.1196 189.346 51.4631 193.666 51.4574 193.71C51.4389 193.844 51.5324 193.968 51.6664 193.986C51.6779 193.988 51.6894 193.989 51.701 193.989Z" fill="#0B122D"/>
<g style="mix-blend-mode:overlay" opacity="0.6">
<path d="M47.4492 211.558L62.0654 205.665C62.9433 205.311 55.4988 211.915 50.7824 211.77C47.7288 211.676 47.9696 214.27 48.7321 215.464C49.8017 217.138 53.4877 218.017 53.4877 218.017C53.4958 218.037 51.3154 218.858 51.3242 218.877L51.1632 218.942C50.2652 219.304 48.2232 218.058 47.8612 217.16L46.4788 213.839C46.3049 213.408 46.3095 212.925 46.4915 212.497C46.6735 212.069 47.018 211.731 47.4492 211.558Z" fill="#030F1C"/>
</g>
<path d="M123.808 131.697C123.808 131.697 123.583 135.164 119.394 137.071L118.334 142.208L121.073 140.315L123.773 143.879L127.4 135.941L123.808 131.697ZM103.733 126.255L101.495 134.635L112.034 143.692C112.474 142.533 113.012 141.414 113.641 140.346L118.334 142.208L115.962 137.31C106.585 131.438 103.733 126.255 103.733 126.255Z" fill="#2D2B72"/>
<g opacity="0.6">
<g style="mix-blend-mode:overlay" opacity="0.6">
<path d="M115.962 137.31L118.334 142.208L113.64 140.346C114.248 139.217 115.032 138.193 115.962 137.31Z" fill="#030F1C"/>
</g>
<g style="mix-blend-mode:overlay" opacity="0.6">
<path d="M119.394 137.072L118.334 142.209L121.073 140.315L119.394 137.072Z" fill="#030F1C"/>
</g>
</g>
<path d="M63.2577 214.128L51.6352 218.755L59.6908 235.382C59.6857 235.391 59.6802 235.399 59.6749 235.408C59.8256 235.714 59.9912 236.034 60.1639 236.358L60.1695 236.37C60.5514 237.085 60.9839 237.836 61.482 238.603C63.0569 241.029 64.9926 243.792 70.7494 249.188C76.5061 254.585 78.8848 256.353 80.4989 255.712C81.5784 255.284 81.0484 254.352 81.5784 253.826C82.1083 253.301 83.7061 254.307 85.5378 253.637C86.6055 253.247 86.4533 252.653 86.2943 252.091L86.2617 251.975C86.1819 251.687 86.1227 251.412 86.2518 251.182C86.648 250.478 88.21 251.706 89.4132 249.577C90.0753 248.406 88.6515 248.129 89.9601 245.947C91.2688 243.766 81.0156 237.869 79.7508 237.442C78.767 237.109 78.1559 234.104 77.9328 232.785L77.9036 232.609C77.8593 232.336 77.837 232.169 77.837 232.169C77.837 232.169 74.2176 232.586 71.6863 231.803C70.5405 231.434 69.6006 230.604 69.0932 229.513L68.9853 229.199L68.975 229.201L63.2577 214.128ZM218.158 129.054C218.158 129.054 217.089 127.955 215.92 128.418C213.675 129.329 211.65 130.706 209.979 132.459C206.511 135.927 204.966 142.469 204.548 144.546L204.519 144.693C204.482 144.878 204.457 145.016 204.443 145.1L204.433 145.153C204.431 145.168 204.429 145.178 204.428 145.185C204.427 145.193 204.424 145.201 204.421 145.208L202.938 148.599L192.339 162.123L203.346 169.72L211.369 156.736C211.872 156.371 216.19 153.256 218.89 151.766C221.254 150.462 221.068 148.756 220.928 148.193C220.909 148.115 223.253 148.663 225.517 148.117C227.093 147.707 228.044 146.105 227.652 144.525L227.222 142.718C227.209 142.666 227.239 142.613 227.289 142.596C227.756 142.434 228.137 142.089 228.343 141.64C228.548 141.19 228.561 140.676 228.377 140.217C228.377 140.217 227.668 138.392 227.691 138.363L228.152 137.773C228.561 137.252 228.629 136.541 228.328 135.951C228.328 135.951 227.102 134.653 226.942 133.773C226.712 132.512 228.154 132.523 227.594 129.824C227.106 127.473 218.749 128.812 218.158 129.054ZM116.797 139.034L118.334 142.209L118.953 139.209L116.797 139.034Z" fill="#FFB7B6"/>
<path d="M239.512 72.8797L220.578 130.678L220.539 130.878L218.81 129.442C218.706 129.356 218.551 129.37 218.464 129.474C218.377 129.579 218.392 129.734 218.496 129.821L221.416 132.246C221.839 132.599 222.048 133.147 221.969 133.692L221.335 137.96C221.238 138.717 220.601 139.289 219.837 139.305C219.521 139.178 219.229 138.999 218.972 138.775C218.49 137.728 218.188 136.606 218.081 135.457C218.074 135.383 218.034 135.316 217.972 135.274L217.029 134.645C216.932 134.58 216.803 134.593 216.72 134.674C216.637 134.756 216.622 134.885 216.685 134.983C216.695 134.998 217.728 136.709 216.472 140.237C216.427 140.366 216.493 140.506 216.622 140.552C216.75 140.598 216.891 140.531 216.936 140.402C217.797 137.983 217.643 136.362 217.407 135.489L217.603 135.619C217.695 136.466 217.876 137.3 218.144 138.109L212.902 154.108L216.231 155.135L220.018 142.043C220.064 142.26 220.158 142.465 220.292 142.642C220.639 143.062 221.132 143.334 221.672 143.403C221.879 143.436 222.088 143.452 222.298 143.451C222.589 143.451 222.877 143.425 223.159 143.4L225.783 143.171C225.848 143.165 225.908 143.134 225.95 143.084C225.992 143.034 226.012 142.969 226.007 142.904C226.003 142.838 225.972 142.777 225.922 142.735C225.871 142.692 225.805 142.673 225.74 142.681L223.116 142.91C222.664 142.969 222.206 142.971 221.753 142.918C221.337 142.868 220.955 142.663 220.683 142.343C220.443 142.045 220.411 141.631 220.602 141.299C220.838 141.04 221.149 140.86 221.492 140.784L224.577 139.728C224.661 139.699 224.722 139.629 224.739 139.542C224.756 139.456 224.726 139.367 224.66 139.309C224.593 139.251 224.501 139.233 224.418 139.262L221.332 140.318C220.977 140.419 220.648 140.596 220.367 140.836L220.73 139.582C221.318 139.267 221.723 138.692 221.822 138.032L222.456 133.764C222.524 133.288 222.425 132.803 222.175 132.392L222.432 132.589L222.737 132.644L222.885 132.671C222.93 132.2 223.012 131.734 223.132 131.277C223.167 131.142 223.207 131.002 223.253 130.859L239.981 73.0242L239.512 72.8797ZM222.215 144.258C222.17 144.13 222.029 144.063 221.901 144.108C221.4 144.262 220.919 144.478 220.471 144.75C219.984 145.048 219.625 145.516 219.463 146.063C219.297 146.662 219.517 147.301 220.016 147.671C220.129 147.746 220.281 147.715 220.356 147.603C220.431 147.491 220.402 147.339 220.29 147.263C219.966 147.007 219.828 146.581 219.941 146.184C220.073 145.756 220.359 145.391 220.743 145.16C221.158 144.912 221.602 144.714 222.065 144.572C222.193 144.527 222.26 144.386 222.215 144.258ZM225.829 134.008C225.783 133.88 225.642 133.814 225.514 133.86L222.415 134.982C222.288 135.029 222.222 135.17 222.268 135.297C222.314 135.425 222.455 135.491 222.583 135.445L225.681 134.323C225.809 134.277 225.876 134.136 225.829 134.008Z" fill="black"/>
</g>
<defs>
<filter id="filter0_d" x="195.31" y="0" width="160.69" height="203.218" filterUnits="userSpaceOnUse" color-interpolation-filters="sRGB">
<feFlood flood-opacity="0" result="BackgroundImageFix"/>
<feColorMatrix in="SourceAlpha" type="matrix" values="0 0 0 0 0 0 0 0 0 0 0 0 0 0 0 0 0 0 127 0"/>
<feOffset dy="2"/>
<feGaussianBlur stdDeviation="8"/>
<feColorMatrix type="matrix" values="0 0 0 0 0.028125 0 0 0 0 0.0845703 0 0 0 0 0.1875 0 0 0 0.05 0"/>
<feBlend mode="normal" in2="BackgroundImageFix" result="effect1_dropShadow"/>
<feBlend mode="normal" in="SourceGraphic" in2="effect1_dropShadow" result="shape"/>
</filter>
</defs>
</svg>
